<svg width="176" height="127" viewBox="0 0 176 127" fill="#ff5555" xmlns="http://www.w3.org/2000/svg">
<g clip-path="url(#clip0_673_7)">
<path d="M0.860054 74.3C0.630054 74.55 0.410054 74.79 0.180054 75.04C2.71005 77.37 5.44005 79.53 7.73005 82.07C10.4801 85.11 13.6601 86 17.6001 85.56C19.2301 85.38 20.9801 85.9 22.6201 86.32C26.7901 87.4 30.9001 88.78 35.1001 89.68C36.9401 90.08 38.1001 90.59 39.1401 92.32C51.6001 113.18 70.1101 123.44 94.2701 120.99C118.19 118.56 134.2 104.96 142.38 82.3C142.79 81.16 143.15 80.01 143.56 78.78C147.49 82.58 146.56 86.42 139.49 96.49C142.36 95.61 145.45 92.8 147.33 89.36C150.68 83.25 148.86 76.25 142.68 73.1C140.09 71.78 137.04 71.03 134.13 70.76C126.51 70.06 119.02 71.42 111.59 72.97C92.6901 76.92 73.8101 81.01 54.8801 84.87C45.4001 86.8 35.9101 87.23 26.5301 83.86C23.8301 82.89 22.3801 81.59 22.2301 78.66C22.0601 75.15 20.2701 72.6 17.1201 70.92C14.6301 69.59 12.2601 68.01 9.83005 66.57C9.28005 66.24 8.68005 66.01 8.10005 65.73C8.02005 65.88 7.94005 66.03 7.86005 66.17C10.5601 68.47 13.2701 70.77 15.9701 73.07C15.7901 73.3 15.6001 73.53 15.4201 73.77C12.3501 71.77 9.29005 69.77 6.22005 67.78C6.14005 67.9 6.06005 68.03 5.99005 68.15C8.74005 70.54 11.4901 72.93 14.2401 75.32C14.0101 75.61 13.7901 75.91 13.5601 76.2C10.6601 74.23 7.77005 72.26 4.87005 70.29C4.78005 70.42 4.69005 70.56 4.60005 70.69C7.18005 73.06 9.76005 75.43 12.3401 77.8C12.1301 78.04 11.9301 78.29 11.7201 78.53C8.87005 76.59 6.03005 74.66 3.18005 72.72C3.10005 72.84 3.02005 72.96 2.93005 73.08C5.42005 75.43 7.92005 77.77 10.4101 80.12L9.82005 80.74C6.83005 78.59 3.83005 76.44 0.840054 74.29L0.860054 74.3ZM38.0201 33.06C37.9501 32.93 37.8801 32.81 37.8001 32.68C36.1701 33.92 34.4001 35.02 32.9301 36.44C29.1701 40.08 27.1301 44.44 28.6401 49.74C30.1901 55.19 34.3601 57.93 39.6201 58.65C43.7001 59.21 48.0001 59.52 52.0301 58.87C63.3601 57.04 74.6101 54.7 85.8801 52.48C100.01 49.7 114.08 46.63 128.26 44.12C136.22 42.71 144.23 43.25 151.78 46.63C152.54 46.97 153.45 48.05 153.46 48.8C153.56 56.79 161.49 63.35 169.29 61.74C172.95 60.99 175.39 57.99 175.39 54.26C175.39 45.72 164.47 39.17 156.95 43.12C156.16 43.54 154.87 43.61 154.05 43.28C146.48 40.18 138.65 38.92 130.56 40.02C123.64 40.96 116.72 42.1 109.88 43.5C92.59 47.04 75.3801 50.99 58.0501 54.3C52.5701 55.35 46.7501 55.51 41.1701 55.06C32.1201 54.33 28.6101 46.63 33.4501 38.95C34.7701 36.86 36.4901 35.02 38.0301 33.07L38.0201 33.06ZM104.43 64.99C104.77 64.78 105.12 64.56 105.46 64.35C106.42 65.31 107.42 66.22 108.32 67.23C109.69 68.76 111.32 69.13 113.29 68.73C116.05 68.16 118.82 67.58 121.61 67.27C124 67 124.01 65.9 123.42 64.52C121.71 65.1 120.18 65.62 118.65 66.13C116.85 61.04 116.65 56.59 118.2 54.42C116.19 54.76 114.42 55.06 112.55 55.37C113.38 56.29 114.3 56.84 114.45 57.55C115.02 60.14 115.4 62.79 115.73 65.43C115.95 67.21 114.82 68.1 113.31 67.49C111.41 66.72 109.73 65.41 107.82 64.25C108.55 63.36 109.05 63.01 109.13 62.59C109.4 61.13 110.09 59.36 109.54 58.25C109.07 57.29 107.12 56.66 105.81 56.62C103.74 56.56 101.66 57.11 99.2101 57.46C101.97 59.31 103.36 67.34 101.65 70.41C103.52 70.09 105.23 69.8 106.44 69.6C105.72 67.96 105.07 66.48 104.42 65L104.43 64.99ZM47.6001 108.03C45.5601 109.16 46.5501 109.95 47.4801 110.77C57.1801 119.3 68.4001 124.48 81.2501 126.01C81.8801 126.08 82.5801 125.55 83.2401 125.3C82.6901 124.87 82.2001 124.18 81.5801 124.04C78.8301 123.4 76.0101 123.07 73.2901 122.35C63.5401 119.78 55.0101 114.94 47.6001 108.04V108.03ZM127.24 112.97C125.94 111.2 125.93 111.18 124.29 112.41C114.91 119.43 104.41 123.41 92.7101 124.26C91.9701 124.31 91.2801 124.95 90.5701 125.32C91.3501 125.65 92.1501 126.29 92.9101 126.25C102.57 125.73 111.55 122.91 119.83 117.93C122.37 116.4 124.77 114.64 127.25 112.98L127.24 112.97ZM66.6901 75.89C64.5801 74.43 62.6601 73.09 60.6601 71.71C61.2601 70.99 61.7601 70.65 61.8501 70.22C62.1501 68.76 62.8701 67.01 62.3401 65.87C61.9001 64.91 59.9601 64.23 58.6501 64.18C56.5701 64.1 54.4601 64.64 52.0801 64.96C54.9701 67.11 56.2401 75.22 54.0901 78.02C56.1901 77.67 57.9601 77.38 59.2401 77.17C58.5201 75.51 57.8801 74.03 57.2401 72.56C57.5301 72.34 57.8201 72.13 58.1101 71.91C59.3501 73.1 60.5301 74.34 61.8301 75.46C63.3601 76.79 65.0401 76.83 66.6901 75.91V75.89ZM88.3601 59.21C91.2301 60.74 90.2701 63.5 90.7401 65.6C91.2101 67.72 92.2001 69.97 89.9401 72.24C92.7501 71.82 95.0301 71.48 97.3101 71.14C99.8601 70.76 100.07 70.34 99.1701 68.22C97.5201 68.84 95.8901 69.45 93.9601 70.18C93.6501 68.19 93.4401 66.85 93.1701 65.12C94.6701 65.33 95.7401 65.48 97.0001 65.66C96.8201 64.61 96.6601 63.64 96.5101 62.77C95.1801 63.24 94.1701 63.6 92.9801 64.02C92.7201 62.61 92.5301 61.58 92.2701 60.15H97.6501C97.5401 59.53 97.4001 58.65 97.2401 57.73C94.0701 58.25 91.2201 58.73 88.3601 59.2V59.21ZM67.1201 75.92C70.6201 75.36 73.6201 74.88 76.7801 74.37C76.7301 73.25 76.6801 72.33 76.6501 71.6C74.8601 72.37 73.2301 73.08 71.2801 73.92C70.9001 72.02 70.6301 70.68 70.2601 68.83C71.7701 69.01 72.8901 69.14 74.2201 69.3C74.0701 68.39 73.8901 67.33 73.7101 66.3C72.4901 66.83 71.4901 67.26 70.1201 67.85C69.9701 66.26 69.8501 65.09 69.7001 63.56C71.6001 63.66 73.1501 63.75 74.8501 63.84C74.7701 63.13 74.6801 62.36 74.5601 61.4C71.3501 61.91 68.3901 62.39 65.1601 62.9C68.0301 64.91 69.3601 73.15 67.1201 75.91V75.92ZM45.7701 74.62C47.5501 73.87 48.7901 73.54 49.8101 72.88C51.3601 71.88 52.0801 70.21 51.2801 68.57C50.7501 67.48 49.4401 66.1 48.4101 66.04C45.9101 65.9 43.3701 66.46 40.1601 66.81C43.4801 68.69 44.8001 76.82 42.7401 79.84C44.7301 79.5 46.4901 79.2 47.8201 78.98C47.0801 77.4 46.4401 76.05 45.7701 74.63V74.62ZM76.5301 61C79.3801 63.25 80.6101 71.06 78.6701 74.1C80.6701 73.75 82.4201 73.44 83.7501 73.21C82.9901 71.62 82.3201 70.23 81.6201 68.77C83.1601 68.22 84.2201 67.97 85.1601 67.49C87.1301 66.47 87.7601 64.74 87.2101 62.66C86.7101 60.76 85.2401 60.03 83.3901 60.19C81.2001 60.37 79.0201 60.71 76.5301 61.01V61ZM127.98 52.85C125.71 53.25 123.92 53.56 122.4 53.83C124.21 55.67 126.06 57.38 127.71 59.26C129.48 61.28 129.45 63.9 127.64 66.23C129.72 65.9 131.49 65.61 133.68 65.26C129.48 62.92 130.75 57.09 135.44 51.66C133.34 52 131.58 52.29 129.42 52.64C132.82 54.82 129.94 56.24 129.77 58.14C127.59 55.9933 126.993 54.2267 127.98 52.84V52.85ZM43.4801 104.92C43.4901 104.65 43.5001 104.38 43.5101 104.11C41.3701 100.98 39.2501 97.83 37.0401 94.74C36.7201 94.29 35.9401 94.15 35.3801 93.87C35.3401 94.49 35.0301 95.3 35.3101 95.72C37.2601 98.68 39.2901 101.6 41.4201 104.43C41.7501 104.86 42.7701 104.76 43.4701 104.91L43.4801 104.92ZM130.87 108.58C131.2 108.64 131.53 108.7 131.86 108.75C133.39 107.02 134.97 105.33 136.41 103.53C136.67 103.2 136.39 102.43 136.36 101.87C135.86 101.99 135.2 101.94 134.9 102.25C133.5 103.67 132.14 105.13 130.92 106.7C130.61 107.1 130.87 107.94 130.87 108.58Z" stroke="black" stroke-width="0.25" stroke-miterlimit="10"/>
<path d="M86.07 9.06999C84.96 6.48 80.63 4.83 83.94 1.39C85.68 -0.420005 91.64 -0.240005 93.11 1.6C95.8 4.95 92.02 6.49 90.65 9.06999C110.49 10.33 125.73 19.27 136.64 36.1C131.73 36.69 127.16 36.92 122.73 37.82C104.53 41.51 86.39 45.52 68.18 49.18C61.58 50.5 54.87 51.27 48.19 52.1C46.07 52.36 43.81 52.28 41.72 51.84C36.7 50.79 34.72 49.65 37.19 44.13C46.33 23.7 61.76 11.88 84.14 9.39999C84.77 9.32999 85.4 9.18999 86.07 9.06999Z" stroke="black" stroke-width="0.25" stroke-miterlimit="10"/>
<path d="M0.859951 74.3C3.84995 76.45 6.84995 78.6 9.83995 80.75L10.43 80.13C7.93995 77.78 5.43995 75.44 2.94995 73.09C3.02995 72.97 3.10995 72.85 3.19995 72.73C6.04995 74.67 8.88995 76.6 11.74 78.54C11.95 78.3 12.15 78.05 12.36 77.81C9.77995 75.44 7.19995 73.07 4.61995 70.7C4.70995 70.57 4.79995 70.43 4.88995 70.3C7.78995 72.27 10.68 74.24 13.58 76.21C13.81 75.92 14.03 75.62 14.26 75.33C11.51 72.94 8.75995 70.55 6.00995 68.16C6.08995 68.04 6.16995 67.91 6.23995 67.79C9.30995 69.79 12.37 71.79 15.44 73.78C15.62 73.55 15.81 73.32 15.99 73.08C13.29 70.78 10.58 68.48 7.87995 66.18C7.95995 66.03 8.03995 65.88 8.11995 65.74C8.69995 66.02 9.29995 66.26 9.84995 66.58C12.28 68.03 14.6499 69.6 17.1399 70.93C20.2899 72.61 22.08 75.16 22.25 78.67C22.4 81.6 23.8499 82.9 26.5499 83.87C35.9299 87.24 45.42 86.81 54.9 84.88C73.82 81.03 92.7 76.94 111.61 72.98C119.04 71.43 126.53 70.07 134.15 70.77C137.06 71.04 140.12 71.79 142.7 73.11C148.88 76.26 150.7 83.26 147.35 89.37C145.47 92.8 142.38 95.61 139.51 96.5C146.58 86.42 147.5 82.59 143.58 78.79C143.17 80.02 142.81 81.18 142.4 82.31C134.21 104.97 118.21 118.57 94.29 121C70.14 123.45 51.63 113.19 39.16 92.33C38.13 90.6 36.9599 90.09 35.1199 89.69C30.9099 88.78 26.8099 87.41 22.6399 86.33C20.9999 85.91 19.25 85.39 17.62 85.57C13.68 86 10.5 85.12 7.74995 82.08C5.44995 79.54 2.72995 77.38 0.199951 75.05C0.429951 74.8 0.649951 74.56 0.879951 74.31L0.859951 74.3ZM40.3499 90.22C41.0299 91.47 41.4699 92.35 41.9799 93.19C58.42 120.1 94.1 127.59 119.89 109.45C130.64 101.89 137.75 91.66 141.19 78.94C141.55 77.59 141.99 76.1 139.96 75.91C134.52 75.39 128.95 74.13 123.63 74.77C114.66 75.85 105.85 78.27 96.93 79.91C94.24 80.41 92.42 81.53 91.25 84.82C96.19 89.53 101.39 94.46 106.53 99.45C107.03 99.93 107.17 100.79 107.47 101.47C106.73 101.17 105.8 101.06 105.28 100.54C100.69 95.94 96.17 91.27 91.62 86.63C91.21 86.21 90.69 85.88 90.13 85.43C88.92 90.33 88.86 95.19 87.31 99.69C86.89 99.62 86.48 99.55 86.06 99.48C86.84 94.41 87.62 89.34 88.35 84.54C86.3 82.52 84.2 82.9 81.92 83.35C68.29 86.01 54.8399 89.72 40.3499 90.23V90.22Z" stroke="black" stroke-width="0.25" stroke-miterlimit="10"/>
<path d="M38.0199 33.06C36.4799 35.01 34.7599 36.85 33.4399 38.94C28.5999 46.63 32.1099 54.33 41.1599 55.05C46.7399 55.5 52.5499 55.34 58.0399 54.29C75.3699 50.97 92.5799 47.02 109.87 43.49C116.72 42.09 123.63 40.96 130.55 40.01C138.64 38.91 146.48 40.17 154.04 43.27C154.86 43.61 156.15 43.53 156.94 43.11C164.47 39.16 175.38 45.71 175.38 54.25C175.38 57.98 172.94 60.98 169.28 61.73C161.48 63.34 153.54 56.78 153.45 48.79C153.45 48.04 152.53 46.96 151.77 46.62C144.22 43.24 136.21 42.7 128.25 44.11C114.08 46.62 99.9999 49.69 85.8699 52.47C74.5999 54.68 63.3499 57.03 52.0199 58.86C47.9899 59.51 43.6899 59.21 39.6099 58.64C34.3499 57.92 30.1799 55.18 28.6299 49.73C27.1299 44.43 29.1599 40.07 32.9199 36.43C34.3899 35.01 36.1599 33.91 37.7899 32.67C37.8599 32.8 37.9299 32.92 38.0099 33.05L38.0199 33.06Z" stroke="black" stroke-width="0.25" stroke-miterlimit="10"/>
<path d="M104.43 64.99C105.08 66.47 105.73 67.94 106.45 69.59C105.24 69.8 103.53 70.08 101.66 70.4C103.36 67.33 101.98 59.3 99.22 57.45C101.66 57.11 103.75 56.55 105.82 56.61C107.14 56.65 109.08 57.28 109.55 58.24C110.1 59.36 109.41 61.12 109.14 62.58C109.06 63 108.56 63.35 107.83 64.24C109.74 65.4 111.42 66.71 113.32 67.48C114.83 68.09 115.96 67.2 115.74 65.42C115.41 62.78 115.03 60.14 114.46 57.54C114.3 56.83 113.39 56.28 112.56 55.36C114.43 55.04 116.2 54.75 118.21 54.41C116.67 56.58 116.86 61.03 118.66 66.12C120.18 65.61 121.72 65.09 123.43 64.51C124.02 65.9 124.01 67 121.62 67.26C118.83 67.57 116.06 68.15 113.3 68.72C111.33 69.12 109.7 68.75 108.33 67.22C107.43 66.21 106.43 65.3 105.47 64.34C105.13 64.55 104.78 64.77 104.44 64.98L104.43 64.99ZM104.48 63.4C105.79 62.56 106.96 62.12 107.58 61.29C107.95 60.79 107.74 59.16 107.29 58.89C106.37 58.35 105.11 58.38 103.61 58.11C103.93 60.03 104.15 61.38 104.49 63.4H104.48Z" stroke="black" stroke-width="0.25" stroke-miterlimit="10"/>
<path d="M47.6 108.03C55.01 114.93 63.54 119.78 73.29 122.34C76.01 123.06 78.83 123.39 81.58 124.03C82.2 124.17 82.69 124.86 83.24 125.29C82.57 125.54 81.88 126.08 81.25 126C68.4 124.47 57.18 119.29 47.48 110.76C46.55 109.94 45.56 109.15 47.6 108.02V108.03Z" stroke="black" stroke-width="0.25" stroke-miterlimit="10"/>
<path d="M127.24 112.97C124.77 114.63 122.37 116.4 119.82 117.92C111.54 122.9 102.56 125.72 92.9001 126.24C92.1401 126.28 91.3401 125.64 90.5601 125.31C91.2701 124.94 91.9701 124.31 92.7001 124.25C104.4 123.4 114.91 119.42 124.28 112.4C125.92 111.17 125.93 111.19 127.23 112.96L127.24 112.97Z" stroke="black" stroke-width="0.25" stroke-miterlimit="10"/>
<path d="M66.69 75.89C65.05 76.81 63.37 76.77 61.83 75.44C60.54 74.32 59.35 73.08 58.11 71.89C57.82 72.11 57.53 72.32 57.24 72.54C57.88 74.02 58.52 75.5 59.24 77.15C57.96 77.36 56.19 77.66 54.09 78C56.25 75.2 54.97 67.09 52.08 64.94C54.46 64.62 56.57 64.08 58.65 64.16C59.96 64.21 61.9 64.89 62.34 65.85C62.87 66.99 62.15 68.74 61.85 70.2C61.76 70.63 61.25 70.97 60.66 71.69C62.66 73.08 64.58 74.41 66.69 75.87V75.89ZM56.53 65.95C56.78 67.66 56.98 69.06 57.19 70.49C59.37 70.25 60.99 69.65 60.65 67.5C60.3 65.32 58.54 65.72 56.53 65.95Z" stroke="black" stroke-width="0.25" stroke-miterlimit="10"/>
<path d="M88.36 59.21C91.22 58.74 94.07 58.26 97.24 57.74C97.4 58.66 97.54 59.54 97.65 60.16H92.27C92.53 61.58 92.72 62.62 92.98 64.03C94.16 63.61 95.18 63.25 96.51 62.78C96.66 63.65 96.82 64.63 97 65.67C95.74 65.49 94.67 65.34 93.17 65.13C93.44 66.87 93.65 68.21 93.96 70.19C95.9 69.46 97.53 68.85 99.17 68.23C100.07 70.35 99.86 70.77 97.31 71.15C95.03 71.49 92.75 71.83 89.94 72.25C92.2 69.98 91.22 67.73 90.74 65.61C90.27 63.5 91.23 60.75 88.36 59.22V59.21Z" stroke="black" stroke-width="0.25" stroke-miterlimit="10"/>
<path d="M67.12 75.92C69.36 73.17 68.04 64.92 65.16 62.91C68.38 62.39 71.35 61.92 74.56 61.41C74.67 62.37 74.76 63.15 74.85 63.85C73.15 63.76 71.6 63.67 69.7 63.57C69.85 65.1 69.96 66.26 70.12 67.86C71.49 67.27 72.48 66.84 73.71 66.31C73.88 67.34 74.07 68.4 74.22 69.31C72.89 69.15 71.77 69.02 70.26 68.84C70.63 70.69 70.9 72.03 71.28 73.93C73.23 73.09 74.86 72.38 76.65 71.61C76.68 72.33 76.73 73.26 76.78 74.38C73.63 74.89 70.62 75.37 67.12 75.93V75.92Z" stroke="black" stroke-width="0.25" stroke-miterlimit="10"/>
<path d="M45.77 74.62C46.44 76.04 47.08 77.39 47.82 78.97C46.49 79.2 44.73 79.5 42.74 79.83C44.8 76.82 43.48 68.68 40.16 66.8C43.37 66.45 45.91 65.89 48.41 66.03C49.44 66.09 50.75 67.47 51.28 68.56C52.08 70.21 51.36 71.87 49.81 72.87C48.79 73.53 47.56 73.86 45.77 74.61V74.62ZM45.78 72.56C47.99 72.31 49.65 71.68 49.17 69.33C48.72 67.09 46.92 67.72 45.08 67.79C45.33 69.52 45.55 71.03 45.77 72.56H45.78Z" stroke="black" stroke-width="0.25" stroke-miterlimit="10"/>
<path d="M76.53 61C79.03 60.69 81.21 60.36 83.39 60.18C85.24 60.03 86.7 60.75 87.21 62.65C87.76 64.73 87.14 66.46 85.16 67.48C84.22 67.96 83.16 68.22 81.62 68.76C82.32 70.22 82.99 71.62 83.75 73.2C82.43 73.43 80.68 73.74 78.67 74.09C80.6 71.05 79.37 63.24 76.53 60.99V61ZM81.54 66.55C81.82 66.74 82.11 66.94 82.39 67.13C83.3 66.35 84.39 65.69 85.02 64.73C85.31 64.28 84.94 62.82 84.47 62.57C83.53 62.07 82.31 62.08 80.88 61.82C81.16 63.82 81.35 65.19 81.54 66.56V66.55Z" stroke="black" stroke-width="0.25" stroke-miterlimit="10"/>
<path d="M127.98 52.85C127 54.2367 127.597 56.0033 129.77 58.15C129.94 56.25 132.81 54.83 129.42 52.65C131.58 52.3 133.34 52.01 135.44 51.67C130.75 57.1 129.48 62.92 133.68 65.27C131.48 65.62 129.71 65.91 127.64 66.24C129.45 63.91 129.48 61.3 127.71 59.27C126.06 57.39 124.22 55.68 122.4 53.84C123.92 53.57 125.72 53.26 127.98 52.86V52.85Z" stroke="black" stroke-width="0.25" stroke-miterlimit="10"/>
<path d="M43.48 104.92C42.78 104.77 41.75 104.87 41.43 104.44C39.29 101.61 37.27 98.69 35.32 95.73C35.04 95.31 35.35 94.51 35.39 93.88C35.96 94.16 36.73 94.29 37.05 94.75C39.26 97.83 41.37 100.99 43.52 104.12C43.51 104.39 43.5001 104.66 43.4901 104.93L43.48 104.92Z" stroke="black" stroke-width="0.25" stroke-miterlimit="10"/>
<path d="M130.87 108.58C130.87 107.94 130.61 107.1 130.92 106.7C132.14 105.13 133.5 103.66 134.9 102.25C135.2 101.94 135.87 101.99 136.36 101.87C136.39 102.44 136.67 103.2 136.41 103.53C134.97 105.33 133.39 107.02 131.86 108.75C131.53 108.69 131.2 108.63 130.87 108.58Z" stroke="black" stroke-width="0.25" stroke-miterlimit="10"/>
<path d="M69.8 17.46C63.01 21.52 57.14 27.54 52.68 34.14C51.1 36.47 49.81 39 48.41 41.45C48 42.17 47.83 43.18 47.23 43.61C46.27 44.29 45.05 44.59 43.93 45.05C43.88 43.93 43.43 42.61 43.86 41.72C46.86 35.58 51.02 30.25 56.45 26.13C60.51 23.05 65.0299 18.89 69.8499 17.45" stroke="black" stroke-width="0.25" stroke-miterlimit="10"/>
<path d="M96.93 79.9C105.85 78.26 114.65 75.84 123.63 74.76C128.95 74.12 134.52 75.37 139.96 75.9C141.99 76.09 141.55 77.59 141.19 78.93C137.74 91.65 130.64 101.88 119.89 109.44C94.1 127.58 58.42 120.1 41.98 93.18C41.47 92.34 41.03 91.46 40.35 90.21C54.84 89.7 68.3 85.99 81.92 83.33C84.2 82.88 86.3 82.5 88.35 84.52C87.61 89.33 86.83 94.39 86.06 99.46C86.48 99.53 86.89 99.6 87.31 99.67C88.87 95.17 88.92 90.31 90.13 85.41C90.7 85.86 91.21 86.19 91.62 86.61C96.17 91.25 100.69 95.92 105.28 100.52C105.8 101.04 106.73 101.15 107.47 101.45C107.16 100.77 107.03 99.91 106.53 99.43C101.39 94.44 96.19 89.51 91.25 84.8M65.43 112.33C65.68 112.61 65.93 112.89 66.18 113.17C67.92 111.54 69.65 109.91 71.39 108.28C71.11 107.98 70.83 107.68 70.55 107.37C68.84 109.02 67.14 110.67 65.43 112.32V112.33ZM93.5 117.96C93.88 117.97 94.25 117.98 94.63 117.99V110.85C94.21 110.85 93.8 110.85 93.39 110.85L93.51 117.97L93.5 117.96ZM137.39 79.68C137.38 80.07 137.36 80.46 137.35 80.84C134.96 80.7 132.56 80.57 130.17 80.43C130.18 80.04 130.2 79.65 130.21 79.26C132.6 79.4 135 79.54 137.39 79.68ZM129.3 97.87C129.52 97.61 129.75 97.34 129.97 97.08C128.39 95.72 126.82 94.36 125.24 93L124.52 93.84L129.3 97.86V97.87ZM115.04 109.81C115.26 109.55 115.49 109.28 115.71 109.02C114.13 107.66 112.56 106.3 110.98 104.94L110.26 105.78L115.04 109.8V109.81ZM49.55 100.91C49.73 101.18 49.92 101.46 50.1 101.73C51.89 100.52 53.68 99.3 55.46 98.09C55.28 97.81 55.09 97.52 54.91 97.24C53.12 98.46 51.33 99.69 49.55 100.91Z" stroke="black" stroke-width="0.25" stroke-miterlimit="10"/>
<path d="M104.48 63.4C104.14 61.37 103.92 60.03 103.6 58.11C105.1 58.38 106.36 58.35 107.28 58.89C107.73 59.16 107.94 60.78 107.57 61.29C106.95 62.13 105.78 62.56 104.47 63.4H104.48Z" stroke="black" stroke-width="0.25" stroke-miterlimit="10"/>
<path d="M56.53 65.95C58.53 65.72 60.3 65.32 60.65 67.5C60.99 69.65 59.37 70.25 57.19 70.49C56.98 69.07 56.78 67.67 56.53 65.95Z" stroke="black" stroke-width="0.25" stroke-miterlimit="10"/>
<path d="M45.78 72.56C45.56 71.02 45.34 69.52 45.09 67.79C46.93 67.73 48.73 67.09 49.18 69.33C49.65 71.68 48 72.31 45.79 72.56H45.78Z" stroke="black" stroke-width="0.25" stroke-miterlimit="10"/>
<path d="M81.54 66.55C81.35 65.18 81.16 63.82 80.88 61.81C82.31 62.07 83.52 62.06 84.47 62.56C84.94 62.81 85.31 64.27 85.02 64.72C84.39 65.68 83.29 66.34 82.39 67.12C82.11 66.93 81.82 66.73 81.54 66.54V66.55Z" stroke="black" stroke-width="0.25" stroke-miterlimit="10"/>
<path d="M65.4301 112.33C67.1401 110.68 68.8401 109.03 70.5501 107.38C70.8301 107.68 71.1101 107.98 71.3901 108.29C69.6501 109.92 67.9201 111.55 66.1801 113.18C65.9301 112.9 65.6801 112.62 65.4301 112.34V112.33Z" stroke="black" stroke-width="0.25" stroke-miterlimit="10"/>
</g>
<defs>
<clipPath id="clip0_673_7">
<rect width="175.51" height="126.37" fill="white"/>
</clipPath>
</defs>
</svg>
