<svg width="176" height="127" viewBox="0 0 176 127" fill="#B40000" xmlns="http://www.w3.org/2000/svg">
<g clip-path="url(#clip0_725_1332)">
<path d="M38.0199 33.06C36.4799 35.01 34.7599 36.85 33.4399 38.94C28.5999 46.63 32.1099 54.33 41.1599 55.05C46.7399 55.5 52.5499 55.34 58.0399 54.29C75.3699 50.97 92.5799 47.02 109.87 43.49C116.72 42.09 123.63 40.96 130.55 40.01C138.64 38.91 146.48 40.17 154.04 43.27C154.86 43.61 156.15 43.53 156.94 43.11C164.47 39.16 175.38 45.71 175.38 54.25C175.38 57.98 172.94 60.98 169.28 61.73C161.48 63.34 153.54 56.78 153.45 48.79C153.45 48.04 152.53 46.96 151.77 46.62C144.22 43.24 136.21 42.7 128.25 44.11C114.08 46.62 99.9999 49.69 85.8699 52.47C74.5999 54.68 63.3499 57.03 52.0199 58.86C47.9899 59.51 43.6899 59.21 39.6099 58.64C34.3499 57.92 30.1799 55.18 28.6299 49.73C27.1299 44.43 29.1599 40.07 32.9199 36.43C34.3899 35.01 36.1599 33.91 37.7899 32.67C37.8599 32.8 37.9299 32.92 38.0099 33.05L38.0199 33.06Z" fill="#B40000" stroke="#B40000" stroke-width="0.25" stroke-miterlimit="10"/>
<path d="M104.43 64.99C105.08 66.47 105.73 67.94 106.45 69.59C105.24 69.8 103.53 70.08 101.66 70.4C103.36 67.33 101.98 59.3 99.2201 57.45C101.66 57.11 103.75 56.55 105.82 56.61C107.14 56.65 109.08 57.28 109.55 58.24C110.1 59.36 109.41 61.12 109.14 62.58C109.06 63 108.56 63.35 107.83 64.24C109.74 65.4 111.42 66.71 113.32 67.48C114.83 68.09 115.96 67.2 115.74 65.42C115.41 62.78 115.03 60.14 114.46 57.54C114.3 56.83 113.39 56.28 112.56 55.36C114.43 55.04 116.2 54.75 118.21 54.41C116.67 56.58 116.86 61.03 118.66 66.12C120.18 65.61 121.72 65.09 123.43 64.51C124.02 65.9 124.01 67 121.62 67.26C118.83 67.57 116.06 68.15 113.3 68.72C111.33 69.12 109.7 68.75 108.33 67.22C107.43 66.21 106.43 65.3 105.47 64.34C105.13 64.55 104.78 64.77 104.44 64.98L104.43 64.99ZM104.48 63.4C105.79 62.56 106.96 62.12 107.58 61.29C107.95 60.79 107.74 59.16 107.29 58.89C106.37 58.35 105.11 58.38 103.61 58.11C103.93 60.03 104.15 61.38 104.49 63.4H104.48Z" stroke="#B40000" stroke-width="0.25" stroke-miterlimit="10"/>
<path d="M47.6 108.03C55.01 114.93 63.54 119.78 73.29 122.34C76.01 123.06 78.83 123.39 81.58 124.03C82.2 124.17 82.69 124.86 83.24 125.29C82.57 125.54 81.88 126.08 81.25 126C68.4 124.47 57.18 119.29 47.48 110.76C46.55 109.94 45.56 109.15 47.6 108.02V108.03Z" fill="#B40000"/>
<path d="M127.24 112.97C124.77 114.63 122.37 116.4 119.82 117.92C111.54 122.9 102.56 125.72 92.9002 126.24C92.1402 126.28 91.3402 125.64 90.5602 125.31C91.2702 124.94 91.9702 124.31 92.7002 124.25C104.4 123.4 114.91 119.42 124.28 112.4C125.92 111.17 125.93 111.19 127.23 112.96L127.24 112.97Z" fill="#B40000"/>
<path d="M66.6901 75.89C65.0501 76.81 63.3701 76.77 61.8301 75.44C60.5401 74.32 59.3501 73.08 58.1101 71.89C57.8201 72.11 57.5301 72.32 57.2401 72.54C57.8801 74.02 58.5201 75.5 59.2401 77.15C57.9601 77.36 56.1901 77.66 54.0901 78C56.2501 75.2 54.9701 67.09 52.0801 64.94C54.4601 64.62 56.5701 64.08 58.6501 64.16C59.9601 64.21 61.9001 64.89 62.3401 65.85C62.8701 66.99 62.1501 68.74 61.8501 70.2C61.7601 70.63 61.2501 70.97 60.6601 71.69C62.6601 73.08 64.5801 74.41 66.6901 75.87V75.89ZM56.5301 65.95C56.7801 67.66 56.9801 69.06 57.1901 70.49C59.3701 70.25 60.9901 69.65 60.6501 67.5C60.3001 65.32 58.5401 65.72 56.5301 65.95Z" stroke="#B40000" stroke-width="0.25" stroke-miterlimit="10"/>
<path d="M88.3601 59.21C91.2201 58.74 94.0701 58.26 97.2401 57.74C97.4001 58.66 97.5401 59.54 97.6501 60.16H92.2701C92.5301 61.58 92.7201 62.62 92.9801 64.03C94.1601 63.61 95.1801 63.25 96.5101 62.78C96.6601 63.65 96.8201 64.63 97.0001 65.67C95.7401 65.49 94.6701 65.34 93.1701 65.13C93.4401 66.87 93.6501 68.21 93.9601 70.19C95.9001 69.46 97.5301 68.85 99.1701 68.23C100.07 70.35 99.8601 70.77 97.3101 71.15C95.0301 71.49 92.7501 71.83 89.9401 72.25C92.2001 69.98 91.2201 67.73 90.7401 65.61C90.2701 63.5 91.2301 60.75 88.3601 59.22V59.21Z" stroke="#B40000" stroke-width="0.25" stroke-miterlimit="10"/>
<path d="M67.12 75.92C69.36 73.17 68.04 64.92 65.16 62.91C68.38 62.39 71.35 61.92 74.56 61.41C74.67 62.37 74.76 63.15 74.85 63.85C73.15 63.76 71.6 63.67 69.7 63.57C69.85 65.1 69.96 66.26 70.12 67.86C71.49 67.27 72.48 66.84 73.71 66.31C73.88 67.34 74.07 68.4 74.22 69.31C72.89 69.15 71.77 69.02 70.26 68.84C70.63 70.69 70.9 72.03 71.28 73.93C73.23 73.09 74.86 72.38 76.65 71.61C76.68 72.33 76.73 73.26 76.78 74.38C73.63 74.89 70.62 75.37 67.12 75.93V75.92Z" stroke="#B40000" stroke-width="0.25" stroke-miterlimit="10"/>
<path d="M45.77 74.62C46.44 76.04 47.08 77.3899 47.82 78.9699C46.49 79.1999 44.73 79.4999 42.74 79.8299C44.8 76.8199 43.48 68.68 40.16 66.8C43.37 66.45 45.91 65.8899 48.41 66.0299C49.44 66.0899 50.75 67.4699 51.28 68.5599C52.08 70.2099 51.36 71.87 49.81 72.87C48.79 73.53 47.56 73.8599 45.77 74.6099V74.62ZM45.78 72.5599C47.99 72.3099 49.65 71.6799 49.17 69.3299C48.72 67.0899 46.92 67.7199 45.08 67.7899C45.33 69.5199 45.55 71.0299 45.77 72.5599H45.78Z" stroke="#B40000" stroke-width="0.25" stroke-miterlimit="10"/>
<path d="M76.53 61C79.03 60.69 81.21 60.36 83.39 60.18C85.24 60.03 86.7 60.75 87.21 62.65C87.76 64.73 87.14 66.46 85.16 67.48C84.22 67.96 83.16 68.22 81.62 68.76C82.32 70.22 82.99 71.62 83.75 73.2C82.43 73.43 80.68 73.74 78.67 74.09C80.6 71.05 79.37 63.24 76.53 60.99V61ZM81.54 66.55C81.82 66.74 82.11 66.94 82.39 67.13C83.3 66.35 84.39 65.69 85.02 64.73C85.31 64.28 84.94 62.82 84.47 62.57C83.53 62.07 82.31 62.08 80.88 61.82C81.16 63.82 81.35 65.19 81.54 66.56V66.55Z" stroke="#B40000" stroke-width="0.25" stroke-miterlimit="10"/>
<path d="M127.98 52.85C127 54.2367 127.597 56.0033 129.77 58.15C129.94 56.25 132.81 54.83 129.42 52.65C131.58 52.3 133.34 52.01 135.44 51.67C130.75 57.1 129.48 62.92 133.68 65.27C131.48 65.62 129.71 65.91 127.64 66.24C129.45 63.91 129.48 61.3 127.71 59.27C126.06 57.39 124.22 55.68 122.4 53.84C123.92 53.57 125.72 53.26 127.98 52.86V52.85Z" stroke="#B40000" stroke-width="0.25" stroke-miterlimit="10"/>
<path d="M43.48 104.92C42.78 104.77 41.75 104.87 41.43 104.44C39.29 101.61 37.27 98.69 35.32 95.73C35.04 95.31 35.35 94.51 35.39 93.88C35.96 94.16 36.73 94.29 37.05 94.75C39.26 97.83 41.37 100.99 43.52 104.12C43.51 104.39 43.5001 104.66 43.4901 104.93L43.48 104.92Z" fill="#B40000"/>
<path d="M130.87 108.58C130.87 107.94 130.61 107.1 130.92 106.7C132.14 105.13 133.5 103.66 134.9 102.25C135.2 101.94 135.87 101.99 136.36 101.87C136.39 102.44 136.67 103.2 136.41 103.53C134.97 105.33 133.39 107.02 131.86 108.75C131.53 108.69 131.2 108.63 130.87 108.58Z" fill="#B40000"/>
<path fill-rule="evenodd" clip-rule="evenodd" d="M84.4615 6.8823C85.0918 7.57569 85.7311 8.27899 86.0701 9.06996C85.8805 9.10392 85.694 9.13948 85.5099 9.17461C85.0435 9.2636 84.5918 9.34977 84.1401 9.39996C61.7601 11.88 46.3301 23.7 37.1901 44.13C34.7201 49.65 36.7001 50.79 41.7201 51.84C43.8101 52.28 46.0701 52.36 48.1901 52.1C48.8685 52.0157 49.5472 51.932 50.2261 51.8483C56.2318 51.1079 62.2504 50.3659 68.1801 49.18C77.7043 47.2657 87.2094 45.2557 96.7139 43.2458C105.382 41.4129 114.049 39.58 122.73 37.82C125.729 37.2108 128.791 36.9086 131.98 36.5939C133.502 36.4437 135.054 36.2906 136.64 36.1C125.73 19.27 110.49 10.33 90.6501 9.06996C91.0509 8.31514 91.658 7.64933 92.249 7.00118C93.6781 5.43393 95.0131 3.96987 93.1101 1.59997C91.6401 -0.240037 85.6801 -0.420037 83.9401 1.38997C81.6409 3.77941 83.0279 5.30522 84.4615 6.8823ZM69.7831 17.4701C69.7887 17.4667 69.7944 17.4633 69.8001 17.4599L69.85 17.45C69.8277 17.4566 69.8054 17.4633 69.7831 17.4701ZM69.7831 17.4701C65.9263 18.6431 62.2623 21.5484 58.8731 24.2358C58.0488 24.8894 57.2407 25.5302 56.4501 26.1299C51.0201 30.25 46.8601 35.58 43.8601 41.72C43.5643 42.3322 43.6849 43.1479 43.8053 43.962C43.8599 44.3313 43.9145 44.7004 43.9301 45.0499C44.2579 44.9153 44.5943 44.7944 44.9303 44.6736C45.742 44.3818 46.5511 44.0909 47.2301 43.61C47.6202 43.3303 47.8286 42.8055 48.0393 42.2746C48.1526 41.9891 48.2667 41.7018 48.4101 41.45C48.7993 40.7689 49.18 40.0816 49.5607 39.3942C50.5497 37.6088 51.5393 35.8222 52.6801 34.1399C57.1364 27.5455 63.0003 21.53 69.7831 17.4701Z" fill="#B40000"/>
<path fill-rule="evenodd" clip-rule="evenodd" d="M0.677571 75.5726C0.671714 75.5684 0.665857 75.5642 0.66 75.5599L0.68 75.5699C0.67919 75.5708 0.678381 75.5717 0.677571 75.5726ZM0.677571 75.5726C0.563415 75.6967 0.451706 75.8183 0.339997 75.9399C0.227498 76.0624 0.114999 76.1849 0 76.3099C0.784981 77.0329 1.58825 77.7394 2.3916 78.4461C4.17743 80.0169 5.96362 81.588 7.55 83.3399C10.3 86.3799 13.48 87.2599 17.42 86.8299C18.8928 86.6673 20.4635 87.0761 21.9625 87.4663C22.1226 87.508 22.2818 87.5494 22.4399 87.5899C24.0529 88.0077 25.6555 88.4688 27.2579 88.93C29.7983 89.661 32.3384 90.3919 34.9199 90.9499C36.7599 91.3499 37.93 91.8599 38.96 93.5899C51.43 114.45 69.94 124.71 94.09 122.26C118.01 119.83 134.01 106.23 142.2 83.5699C142.482 82.7928 142.74 82.0015 143.008 81.183C143.129 80.8113 143.252 80.434 143.38 80.0499C147.3 83.8499 146.38 87.6799 139.31 97.7599C142.18 96.8699 145.27 94.0599 147.15 90.6299C150.5 84.5199 148.68 77.5199 142.5 74.3699C139.92 73.0499 136.86 72.2999 133.95 72.0299C126.33 71.3299 118.84 72.6899 111.41 74.2399C104.71 75.6431 98.0132 77.0625 91.3173 78.4818C79.1157 81.0682 66.9162 83.6541 54.7001 86.1399C45.2201 88.0699 35.7299 88.4999 26.3499 85.1299C23.6499 84.1599 22.2 82.8599 22.05 79.9299C21.88 76.4199 20.0899 73.8699 16.9399 72.1899C15.2802 71.3034 13.6737 70.3102 12.0673 69.317C11.2638 68.8202 10.4602 68.3234 9.65 67.8399C9.27783 67.6234 8.88277 67.4435 8.4865 67.263C8.29715 67.1768 8.10753 67.0905 7.92 66.9999C7.84001 67.1399 7.76002 67.2899 7.68004 67.4399L7.68 67.4399C9.02662 68.587 10.3757 69.7341 11.7248 70.8812C13.0807 72.0341 14.4366 73.187 15.79 74.3399C15.6744 74.4942 15.5546 74.6443 15.436 74.7929C15.37 74.8755 15.3044 74.9577 15.24 75.0399C13.0368 73.6118 10.8387 72.1785 8.63841 70.7438C7.77277 70.1793 6.90678 69.6146 6.04 69.0499C5.97 69.1699 5.89 69.2999 5.81 69.4199L14.06 76.5899C13.945 76.7349 13.8325 76.8824 13.72 77.0299C13.6075 77.1774 13.495 77.3249 13.38 77.4699C11.9301 76.485 10.4826 75.5 9.03513 74.515C7.58758 73.53 6.14003 72.545 4.69 71.5599C4.645 71.6249 4.6 71.6924 4.555 71.7599C4.51 71.8274 4.465 71.8949 4.42 71.9599L12.16 79.0699C12.055 79.1899 11.9525 79.3124 11.85 79.4349C11.7475 79.5574 11.645 79.6799 11.54 79.7999C10.1226 78.8351 8.70772 77.8728 7.29281 76.9105C5.86271 75.9378 4.43262 74.9651 3 73.9899C2.91 74.1099 2.83 74.2299 2.75 74.3499C3.99653 75.5264 5.24556 76.7003 6.49459 77.8743C7.74057 79.0453 8.98655 80.2164 10.23 81.3899L9.64 82.0099C8.14505 80.935 6.6476 79.86 5.15015 78.785C3.65846 77.7142 2.16678 76.6434 0.677571 75.5726ZM96.9301 79.9C100.221 79.295 103.495 78.5839 106.767 77.8731C112.367 76.657 117.963 75.4416 123.63 74.76C127.489 74.2957 131.48 74.8261 135.458 75.3547L135.458 75.3547C136.963 75.5547 138.467 75.7545 139.96 75.9C141.955 76.0867 141.564 77.5389 141.209 78.8609L141.19 78.93C137.74 91.65 130.64 101.88 119.89 109.44C94.1001 127.58 58.4201 120.1 41.9801 93.18C41.6327 92.6079 41.3179 92.0172 40.9375 91.3037L40.9375 91.3036C40.7594 90.9696 40.5669 90.6086 40.3501 90.21C51.3526 89.8227 61.7613 87.5905 72.0971 85.3738L72.0973 85.3738C75.3734 84.6712 78.6421 83.9702 81.9201 83.33C84.2001 82.88 86.3001 82.5 88.3501 84.52C87.9882 86.8721 87.4829 89.2935 86.9709 91.7468L86.9709 91.7469C86.4359 94.3107 85.8936 96.9093 85.5001 99.5C85.2539 101.121 85.5001 102 86.0001 102C86.5001 102 87.0001 101.5 87.3101 99.67C88.2074 97.0815 88.6052 94.3739 89.0114 91.6081C89.3114 89.5656 89.6161 87.4914 90.1301 85.41C90.3084 85.5508 90.4809 85.6798 90.6462 85.8036L90.6465 85.8038C91.0096 86.0754 91.3385 86.3215 91.6201 86.61C92.9851 88.002 94.3474 89.3967 95.7097 90.7914C98.8884 94.0457 102.067 97.3 105.28 100.52C105.635 100.875 106.182 101.039 106.729 101.203L106.729 101.203C106.983 101.279 107.236 101.355 107.47 101.45C107.369 101.228 107.287 100.988 107.205 100.747C107.036 100.25 106.867 99.7536 106.53 99.43C102.371 95.3921 98.1723 91.3935 94.104 87.519C93.1447 86.6054 92.1927 85.6987 91.2501 84.8L96.9301 79.9ZM65.4301 112.33L66.1801 113.17C67.0501 112.355 67.9176 111.54 68.7851 110.725L68.8008 110.71C69.6631 109.9 70.5254 109.09 71.3901 108.28L71.3898 108.28C71.1099 107.98 70.83 107.68 70.5501 107.37C69.7016 108.189 68.8555 109.007 68.0095 109.826L67.9901 109.845C67.1376 110.67 66.2851 111.495 65.4301 112.32V112.33ZM94.6301 117.99L93.5099 117.96L93.3901 110.85H94.6301V117.99ZM137.37 80.273L137.37 80.2752C137.362 80.4651 137.355 80.6537 137.35 80.84C136.155 80.77 134.958 80.7025 133.76 80.635C132.563 80.5675 131.365 80.5 130.17 80.43C130.175 80.2362 130.183 80.0423 130.19 79.8485L130.19 79.845C130.198 79.65 130.205 79.455 130.21 79.26L133.8 79.47L137.39 79.68C137.385 79.8781 137.377 80.0762 137.37 80.273ZM129.3 97.87C129.41 97.74 129.523 97.6075 129.635 97.475C129.748 97.3425 129.86 97.21 129.97 97.08C129.185 96.4041 128.402 95.7282 127.619 95.0524L127.605 95.04L127.598 95.0338C126.813 94.3559 126.028 93.6779 125.24 93L124.52 93.84L129.3 97.86V97.87ZM115.04 109.81C115.15 109.68 115.263 109.548 115.375 109.415C115.439 109.34 115.503 109.264 115.566 109.19C115.615 109.133 115.663 109.076 115.71 109.02C114.921 108.341 114.135 107.662 113.349 106.984L113.345 106.98L113.341 106.976C112.555 106.298 111.769 105.619 110.98 104.94L110.26 105.78L115.04 109.8V109.81ZM49.5501 100.91C49.6401 101.045 49.7326 101.183 49.8251 101.32C49.9176 101.458 50.0101 101.595 50.1001 101.73C51.4536 100.815 52.8071 99.8944 54.1562 98.9767L54.1627 98.9723L54.1824 98.9589C54.6088 98.6689 55.0347 98.3792 55.4601 98.09C55.3701 97.95 55.2776 97.8075 55.1851 97.665C55.0926 97.5225 55.0001 97.38 54.9101 97.24C53.5485 98.168 52.187 99.1018 50.8298 100.033L49.5501 100.91Z" fill="#B40000"/>
<path d="M0.66 75.5599L0.715877 75.4481L0.587026 75.6614L0.66 75.5599ZM0.68 75.5699L0.771996 75.6546L0.884419 75.5324L0.735877 75.4581L0.68 75.5699ZM0.339997 75.9399L0.432064 76.0245H0.432064L0.339997 75.9399ZM0 76.3099L-0.0919914 76.2253L-0.17658 76.3173L-0.0846793 76.4019L0 76.3099ZM2.3916 78.4461L2.30904 78.5399L2.3916 78.4461ZM7.55 83.3399L7.6427 83.2561L7.64266 83.256L7.55 83.3399ZM17.42 86.8299L17.4336 86.9542L17.4338 86.9542L17.42 86.8299ZM21.9625 87.4663L21.994 87.3454L21.9625 87.4663ZM22.4399 87.5899L22.4713 87.4689L22.471 87.4689L22.4399 87.5899ZM27.2579 88.93L27.2925 88.8098L27.2579 88.93ZM34.9199 90.9499L34.9465 90.8278L34.9464 90.8278L34.9199 90.9499ZM38.96 93.5899L38.8526 93.6539L38.8528 93.6541L38.96 93.5899ZM94.09 122.26L94.1027 122.384L94.1027 122.384L94.09 122.26ZM142.2 83.5699L142.083 83.5273L142.082 83.5275L142.2 83.5699ZM143.008 81.183L143.126 81.2218V81.2218L143.008 81.183ZM143.38 80.0499L143.467 79.9602L143.324 79.8218L143.261 80.0104L143.38 80.0499ZM139.31 97.7599L139.208 97.6882L138.998 97.9877L139.347 97.8793L139.31 97.7599ZM147.15 90.6299L147.04 90.5698L147.04 90.5699L147.15 90.6299ZM142.5 74.3699L142.443 74.4812L142.443 74.4813L142.5 74.3699ZM133.95 72.0299L133.962 71.9055L133.961 71.9055L133.95 72.0299ZM111.41 74.2399L111.385 74.1176L111.384 74.1176L111.41 74.2399ZM91.3173 78.4818L91.2914 78.3596L91.3173 78.4818ZM54.7001 86.1399L54.6751 86.0174L54.6751 86.0175L54.7001 86.1399ZM26.3499 85.1299L26.3922 85.0123L26.3922 85.0123L26.3499 85.1299ZM22.05 79.9299L21.9252 79.936L21.9252 79.9363L22.05 79.9299ZM16.9399 72.1899L16.8811 72.3002L16.8811 72.3002L16.9399 72.1899ZM12.0673 69.317L12.133 69.2107L12.0673 69.317ZM9.65 67.8399L9.71405 67.7326L9.71286 67.7319L9.65 67.8399ZM8.4865 67.263L8.43469 67.3768V67.3768L8.4865 67.263ZM7.92 66.9999L7.97434 66.8874L7.86933 66.8367L7.81147 66.9379L7.92 66.9999ZM7.68004 67.4399L7.79008 67.4992L7.79033 67.4987L7.68004 67.4399ZM7.68 67.4399L7.56996 67.3806L7.52203 67.4696L7.59894 67.5351L7.68 67.4399ZM11.7248 70.8812L11.8058 70.786L11.7248 70.8812ZM15.79 74.3399L15.89 74.4149L15.9605 74.321L15.8711 74.2448L15.79 74.3399ZM15.436 74.7929L15.5337 74.8709L15.436 74.7929ZM15.24 75.0399L15.1721 75.1448L15.268 75.207L15.3385 75.117L15.24 75.0399ZM8.63841 70.7438L8.57014 70.8485L8.63841 70.7438ZM6.04 69.0499L6.10823 68.9452L5.9982 68.8735L5.93203 68.987L6.04 69.0499ZM5.81 69.4199L5.70599 69.3506L5.64497 69.4421L5.728 69.5143L5.81 69.4199ZM14.06 76.5899L14.158 76.6676L14.2322 76.574L14.142 76.4956L14.06 76.5899ZM13.38 77.4699L13.3098 77.5733L13.4058 77.6386L13.478 77.5476L13.38 77.4699ZM9.03513 74.515L8.96481 74.6184L9.03513 74.515ZM4.69 71.5599L4.76024 71.4565L4.65775 71.3869L4.58722 71.4888L4.69 71.5599ZM4.42 71.9599L4.31722 71.8888L4.25524 71.9783L4.33544 72.052L4.42 71.9599ZM12.16 79.0699L12.2541 79.1523L12.3345 79.0604L12.2446 78.9779L12.16 79.0699ZM11.54 79.7999L11.4697 79.9033L11.5612 79.9656L11.6341 79.8823L11.54 79.7999ZM7.29281 76.9105L7.22252 77.0138L7.29281 76.9105ZM3 73.9899L3.07034 73.8866L2.97164 73.8194L2.9 73.9149L3 73.9899ZM2.75 74.3499L2.64599 74.2806L2.58745 74.3684L2.6642 74.4408L2.75 74.3499ZM6.49459 77.8743L6.40899 77.9653L6.49459 77.8743ZM10.23 81.3899L10.3206 81.4761L10.4071 81.3852L10.3158 81.299L10.23 81.3899ZM9.64 82.0099L9.56702 82.1114L9.65546 82.175L9.73055 82.0961L9.64 82.0099ZM5.15015 78.785L5.22304 78.6835L5.15015 78.785ZM106.767 77.8731L106.741 77.751L106.767 77.8731ZM96.9301 79.9L96.9075 79.7771L96.8741 79.7832L96.8484 79.8054L96.9301 79.9ZM123.63 74.76L123.645 74.8841L123.645 74.8841L123.63 74.76ZM135.458 75.3547L135.441 75.4786L135.442 75.4787L135.458 75.3547ZM135.458 75.3547L135.475 75.2308L135.474 75.2307L135.458 75.3547ZM139.96 75.9L139.948 76.0244L139.948 76.0245L139.96 75.9ZM141.209 78.8609L141.088 78.8285V78.8285L141.209 78.8609ZM141.19 78.93L141.311 78.9627L141.311 78.9625L141.19 78.93ZM119.89 109.44L119.818 109.338L119.818 109.338L119.89 109.44ZM41.9801 93.18L41.8732 93.2449L41.8734 93.2451L41.9801 93.18ZM40.9375 91.3037L40.8256 91.3596L40.8272 91.3625L40.9375 91.3037ZM40.9375 91.3036L41.0493 91.2477L41.0478 91.2448L40.9375 91.3036ZM40.3501 90.21L40.3457 90.0851L40.1437 90.0922L40.2403 90.2697L40.3501 90.21ZM72.0971 85.3738L72.0709 85.2516L72.0709 85.2516L72.0971 85.3738ZM72.0973 85.3738L72.1235 85.496L72.1235 85.496L72.0973 85.3738ZM81.9201 83.33L81.9441 83.4527L81.9443 83.4526L81.9201 83.33ZM88.3501 84.52L88.4736 84.539L88.4834 84.4758L88.4378 84.431L88.3501 84.52ZM86.9709 91.7468L86.8485 91.7213L86.8476 91.7263L86.9709 91.7468ZM86.9709 91.7469L87.0934 91.7725L87.0942 91.7675L86.9709 91.7469ZM85.5001 99.5L85.3765 99.4812L85.5001 99.5ZM87.3101 99.67L87.192 99.6291L87.1886 99.6389L87.1869 99.6491L87.3101 99.67ZM89.0114 91.6081L88.8878 91.5899L89.0114 91.6081ZM90.1301 85.41L90.2076 85.3119L90.0553 85.1917L90.0087 85.38L90.1301 85.41ZM90.6462 85.8036L90.7225 85.7045L90.7211 85.7035L90.6462 85.8036ZM90.6465 85.8038L90.5703 85.9029L90.5717 85.9039L90.6465 85.8038ZM91.6201 86.61L91.5307 86.6973L91.5309 86.6975L91.6201 86.61ZM95.7097 90.7914L95.6203 90.8787L95.7097 90.7914ZM105.28 100.52L105.192 100.608L105.192 100.608L105.28 100.52ZM106.729 101.203L106.765 101.083L106.765 101.083L106.729 101.203ZM106.729 101.203L106.693 101.323L106.693 101.323L106.729 101.203ZM107.47 101.45L107.423 101.566L107.714 101.684L107.584 101.398L107.47 101.45ZM107.205 100.747L107.324 100.707L107.324 100.707L107.205 100.747ZM106.53 99.43L106.443 99.5197L106.444 99.5202L106.53 99.43ZM94.104 87.519L94.1902 87.4284L94.104 87.519ZM91.2501 84.8L91.1684 84.7054L91.0641 84.7954L91.1638 84.8905L91.2501 84.8ZM66.1801 113.17L66.0869 113.253L66.1721 113.349L66.2656 113.261L66.1801 113.17ZM65.4301 112.33H65.3051V112.378L65.3369 112.413L65.4301 112.33ZM68.7851 110.725L68.8707 110.816L68.8707 110.816L68.7851 110.725ZM68.8008 110.71L68.7153 110.619L68.7152 110.619L68.8008 110.71ZM71.3901 108.28L71.4756 108.371L71.5666 108.286L71.4815 108.195L71.3901 108.28ZM71.3898 108.28L71.2984 108.365L71.3898 108.28ZM70.5501 107.37L70.6429 107.286L70.5563 107.19L70.4633 107.28L70.5501 107.37ZM68.0095 109.826L67.9226 109.736L67.9226 109.736L68.0095 109.826ZM67.9901 109.845L68.077 109.935L68.077 109.935L67.9901 109.845ZM65.4301 112.32L65.3433 112.23L65.3051 112.267V112.32H65.4301ZM93.5099 117.96L93.3849 117.962L93.387 118.082L93.5066 118.085L93.5099 117.96ZM94.6301 117.99L94.6268 118.115L94.7551 118.118V117.99H94.6301ZM93.3901 110.85V110.725H93.263L93.2651 110.852L93.3901 110.85ZM94.6301 110.85H94.7551V110.725H94.6301V110.85ZM137.37 80.2752L137.245 80.27L137.245 80.2704L137.37 80.2752ZM137.37 80.273L137.495 80.2782L137.495 80.2779L137.37 80.273ZM137.35 80.84L137.343 80.9648L137.472 80.9723L137.475 80.8433L137.35 80.84ZM133.76 80.635L133.753 80.7598L133.76 80.635ZM130.17 80.43L130.045 80.4268L130.042 80.5477L130.163 80.5548L130.17 80.43ZM130.19 79.8485L130.065 79.8436V79.8437L130.19 79.8485ZM130.19 79.845L130.315 79.8499V79.8498L130.19 79.845ZM130.21 79.26L130.217 79.1352L130.088 79.1277L130.085 79.2568L130.21 79.26ZM137.39 79.68L137.515 79.6832L137.518 79.5623L137.397 79.5552L137.39 79.68ZM129.3 97.87H129.175V98.2113L129.396 97.9507L129.3 97.87ZM129.97 97.08L130.066 97.1607L130.146 97.0661L130.052 96.9853L129.97 97.08ZM127.619 95.0524L127.701 94.9578L127.701 94.9577L127.619 95.0524ZM127.605 95.04L127.523 95.1346V95.1346L127.605 95.04ZM127.598 95.0338L127.516 95.1284L127.516 95.1284L127.598 95.0338ZM125.24 93L125.322 92.9053L125.227 92.8235L125.145 92.9187L125.24 93ZM124.52 93.84L124.425 93.7586L124.343 93.8544L124.44 93.9357L124.52 93.84ZM129.3 97.86H129.425V97.8018L129.381 97.7643L129.3 97.86ZM115.375 109.415L115.28 109.334L115.375 109.415ZM115.04 109.81H114.915V110.151L115.136 109.891L115.04 109.81ZM115.566 109.19L115.471 109.109L115.566 109.19ZM115.71 109.02L115.806 109.101L115.886 109.006L115.792 108.925L115.71 109.02ZM113.349 106.984L113.431 106.889L113.431 106.889L113.349 106.984ZM113.341 106.976L113.259 107.071L113.259 107.071L113.341 106.976ZM110.98 104.94L111.062 104.845L110.967 104.764L110.885 104.859L110.98 104.94ZM110.26 105.78L110.165 105.699L110.083 105.794L110.18 105.876L110.26 105.78ZM115.04 109.8H115.165V109.742L115.121 109.704L115.04 109.8ZM49.8251 101.32L49.7214 101.39V101.39L49.8251 101.32ZM49.5501 100.91L49.4794 100.807L49.3777 100.877L49.4461 100.979L49.5501 100.91ZM50.1001 101.73L49.9961 101.799L50.0659 101.904L50.1701 101.834L50.1001 101.73ZM54.1562 98.9767L54.0859 98.8734L54.0859 98.8734L54.1562 98.9767ZM54.1627 98.9723L54.233 99.0757H54.233L54.1627 98.9723ZM54.1824 98.9589L54.2527 99.0623L54.2527 99.0623L54.1824 98.9589ZM55.4601 98.09L55.5304 98.1934L55.6311 98.1249L55.5652 98.0224L55.4601 98.09ZM55.1851 97.665L55.0802 97.7331V97.7331L55.1851 97.665ZM54.9101 97.24L55.0152 97.1724L54.9458 97.0644L54.8397 97.1367L54.9101 97.24ZM50.8298 100.033L50.9005 100.136L50.9005 100.136L50.8298 100.033ZM0.587026 75.6614C0.592883 75.6656 0.598741 75.6699 0.604598 75.6741L0.750544 75.4711C0.744687 75.4669 0.738831 75.4627 0.732974 75.4585L0.587026 75.6614ZM0.735877 75.4581L0.715877 75.4481L0.604123 75.6718L0.624123 75.6818L0.735877 75.4581ZM0.76958 75.6572C0.770406 75.6563 0.771114 75.6555 0.771996 75.6546L0.588004 75.4853C0.587267 75.4861 0.586356 75.4871 0.585563 75.488L0.76958 75.6572ZM0.432064 76.0245C0.543778 75.9028 0.65545 75.7812 0.769564 75.6572L0.585579 75.4879C0.471379 75.6121 0.359634 75.7338 0.24793 75.8554L0.432064 76.0245ZM0.0919914 76.3946C0.207034 76.2695 0.31957 76.147 0.432064 76.0245L0.24793 75.8554C0.135426 75.9779 0.0229638 76.1004 -0.0919914 76.2253L0.0919914 76.3946ZM2.47415 78.3522C1.67063 77.6454 0.868435 76.9398 0.0846793 76.218L-0.0846793 76.4019C0.701527 77.1259 1.50588 77.8334 2.30904 78.5399L2.47415 78.3522ZM7.64266 83.256C6.05071 81.498 4.25907 79.9222 2.47415 78.3522L2.30904 78.5399C4.0958 80.1116 5.87653 81.6781 7.45734 83.4238L7.64266 83.256ZM17.4065 86.7057C15.4491 86.9193 13.6881 86.8067 12.0785 86.2677C10.4698 85.729 9.00498 84.762 7.6427 83.2561L7.4573 83.4238C8.84507 84.9579 10.3453 85.9509 11.9991 86.5047C13.652 87.0582 15.451 87.1706 17.4336 86.9542L17.4065 86.7057ZM21.994 87.3454C20.5003 86.9566 18.9063 86.5401 17.4063 86.7057L17.4338 86.9542C18.8794 86.7945 20.4267 87.1957 21.931 87.5873L21.994 87.3454ZM22.471 87.4689C22.3131 87.4284 22.1541 87.387 21.994 87.3454L21.931 87.5873C22.091 87.6289 22.2505 87.6705 22.4089 87.711L22.471 87.4689ZM27.2925 88.8098C25.6903 88.3488 24.0862 87.8872 22.4713 87.4689L22.4086 87.711C24.0197 88.1282 25.6206 88.5889 27.2234 89.0501L27.2925 88.8098ZM34.9464 90.8278C32.3696 90.2708 29.8335 89.541 27.2925 88.8098L27.2234 89.0501C29.763 89.7809 32.3072 90.5131 34.8935 91.0721L34.9464 90.8278ZM39.0675 93.526C38.5439 92.6466 37.9802 92.0704 37.3084 91.6642C36.6392 91.2596 35.8704 91.0286 34.9465 90.8278L34.8934 91.0721C35.8095 91.2712 36.5458 91.4953 37.1791 91.8782C37.8099 92.2595 38.3462 92.8033 38.8526 93.6539L39.0675 93.526ZM94.0774 122.136C82.0239 123.358 71.3841 121.409 62.2035 116.556C53.0224 111.702 45.2929 103.94 39.0673 93.5258L38.8528 93.6541C45.0972 104.1 52.8577 111.898 62.0866 116.777C71.316 121.656 82.0062 123.611 94.1027 122.384L94.0774 122.136ZM142.082 83.5275C137.994 94.8404 131.958 103.885 123.965 110.404C115.972 116.923 106.016 120.923 94.0774 122.136L94.1027 122.384C106.084 121.167 116.088 117.152 124.123 110.598C132.157 104.045 138.216 94.9595 142.318 83.6124L142.082 83.5275ZM142.889 81.1442C142.621 81.963 142.364 82.7524 142.083 83.5273L142.318 83.6126C142.6 82.8332 142.859 82.0399 143.126 81.2218L142.889 81.1442ZM143.261 80.0104C143.133 80.3949 143.01 80.7726 142.889 81.1442L143.126 81.2218C143.248 80.85 143.371 80.4731 143.499 80.0895L143.261 80.0104ZM139.412 97.8317C142.946 92.7934 144.958 89.2975 145.588 86.5782C145.904 85.214 145.874 84.0398 145.511 82.9628C145.148 81.887 144.456 80.9189 143.467 79.9602L143.293 80.1397C144.264 81.081 144.927 82.0166 145.274 83.0427C145.619 84.0676 145.652 85.1934 145.345 86.5217C144.727 89.1874 142.744 92.6465 139.208 97.6882L139.412 97.8317ZM147.04 90.5699C145.171 93.9803 142.104 96.7628 139.273 97.6406L139.347 97.8793C142.257 96.9771 145.369 94.1396 147.26 90.69L147.04 90.5699ZM142.443 74.4813C148.555 77.5963 150.36 84.5158 147.04 90.5698L147.26 90.69C150.64 84.5241 148.805 77.4436 142.557 74.2586L142.443 74.4813ZM133.938 72.1544C136.837 72.4233 139.88 73.1701 142.443 74.4812L142.557 74.2587C139.96 72.9298 136.883 72.1766 133.962 71.9055L133.938 72.1544ZM111.436 74.3623C118.866 72.8123 126.339 71.4563 133.939 72.1544L133.961 71.9055C126.321 71.2036 118.814 72.5676 111.385 74.1176L111.436 74.3623ZM91.3432 78.6041C98.0391 77.1848 104.736 75.7654 111.436 74.3623L111.384 74.1176C104.684 75.5208 97.9873 76.9402 91.2914 78.3596L91.3432 78.6041ZM54.725 86.2624C66.9417 83.7765 79.1417 81.1905 91.3432 78.6041L91.2914 78.3596C79.0897 80.9459 66.8907 83.5317 54.6751 86.0174L54.725 86.2624ZM26.3077 85.2476C35.7175 88.6283 45.2332 88.1948 54.725 86.2624L54.6751 86.0175C45.207 87.945 35.7424 88.3716 26.3922 85.0123L26.3077 85.2476ZM21.9252 79.9363C22.0013 81.4222 22.4083 82.5091 23.1501 83.3478C23.8892 84.1833 24.9497 84.7597 26.3077 85.2476L26.3922 85.0123C25.0502 84.5302 24.0357 83.9716 23.3374 83.1821C22.6418 82.3958 22.2488 81.3677 22.1749 79.9235L21.9252 79.9363ZM16.8811 72.3002C19.9968 73.9619 21.7576 76.4748 21.9252 79.936L22.1749 79.9239C22.0025 76.3651 20.1831 73.7779 16.9988 72.0796L16.8811 72.3002ZM12.0016 69.4233C13.6074 70.4162 15.2172 71.4115 16.8811 72.3002L16.9988 72.0797C15.3431 71.1953 13.74 70.2042 12.133 69.2107L12.0016 69.4233ZM9.58595 67.9473C10.3952 68.4302 11.1979 68.9264 12.0016 69.4233L12.133 69.2107C11.3296 68.714 10.5253 68.2166 9.71405 67.7326L9.58595 67.9473ZM8.43469 67.3768C8.83195 67.5577 9.22126 67.7351 9.58714 67.948L9.71286 67.7319C9.33439 67.5117 8.93358 67.3293 8.5383 67.1493L8.43469 67.3768ZM7.86566 67.1125C8.05466 67.2038 8.24556 67.2907 8.43469 67.3768L8.5383 67.1493C8.34874 67.063 8.1604 66.9772 7.97434 66.8874L7.86566 67.1125ZM7.79033 67.4987C7.87049 67.3484 7.94961 67.2001 8.02853 67.062L7.81147 66.9379C7.73041 67.0798 7.64955 67.2314 7.56974 67.381L7.79033 67.4987ZM7.79004 67.4992L7.79008 67.4992L7.57 67.3806L7.56996 67.3806L7.79004 67.4992ZM11.8058 70.786C10.4567 69.6389 9.10762 68.4918 7.76106 67.3448L7.59894 67.5351C8.94561 68.6822 10.2947 69.8294 11.6438 70.9765L11.8058 70.786ZM15.8711 74.2448C14.5176 73.0918 13.1617 71.9389 11.8058 70.786L11.6438 70.9765C12.9998 72.1294 14.3556 73.2822 15.709 74.4351L15.8711 74.2448ZM15.5337 74.8709C15.6521 74.7225 15.7731 74.5709 15.89 74.4149L15.69 74.2649C15.5757 74.4174 15.4571 74.566 15.3383 74.7149L15.5337 74.8709ZM15.3385 75.117C15.4024 75.0353 15.4676 74.9536 15.5337 74.8709L15.3383 74.7149C15.2724 74.7975 15.2064 74.8801 15.1416 74.9629L15.3385 75.117ZM8.57014 70.8485C10.7704 72.2832 12.9687 73.7166 15.1721 75.1448L15.308 74.935C13.105 73.507 10.907 72.0738 8.70669 70.639L8.57014 70.8485ZM5.97177 69.1547C6.83852 69.7193 7.70449 70.284 8.57014 70.8485L8.70669 70.639C7.84105 70.0746 6.97504 69.5099 6.10823 68.9452L5.97177 69.1547ZM5.91401 69.4893C5.99566 69.3668 6.07698 69.2346 6.14797 69.1129L5.93203 68.987C5.86302 69.1053 5.78434 69.2331 5.70599 69.3506L5.91401 69.4893ZM14.142 76.4956L5.892 69.3256L5.728 69.5143L13.9781 76.6843L14.142 76.4956ZM13.8194 77.1057C13.9321 76.9581 14.0438 76.8115 14.158 76.6676L13.9621 76.5123C13.8463 76.6584 13.733 76.8068 13.6207 76.9541L13.8194 77.1057ZM13.478 77.5476C13.5938 77.4015 13.7071 77.2531 13.8194 77.1057L13.6207 76.9541C13.508 77.1018 13.3963 77.2483 13.2821 77.3923L13.478 77.5476ZM8.96481 74.6184C10.4123 75.6033 11.8598 76.5883 13.3098 77.5733L13.4503 77.3665C12.0004 76.3816 10.5529 75.3967 9.10545 74.4117L8.96481 74.6184ZM4.61976 71.6633C6.06975 72.6483 7.51725 73.6333 8.96481 74.6184L9.10545 74.4117C7.65791 73.4267 6.21032 72.4416 4.76024 71.4565L4.61976 71.6633ZM4.659 71.8293C4.70412 71.7616 4.7485 71.695 4.79277 71.6311L4.58722 71.4888C4.54149 71.5548 4.49588 71.6233 4.45099 71.6906L4.659 71.8293ZM4.52277 72.0311C4.5685 71.965 4.61412 71.8966 4.659 71.8293L4.45099 71.6906C4.40588 71.7583 4.36149 71.8248 4.31722 71.8888L4.52277 72.0311ZM12.2446 78.9779L4.50456 71.8679L4.33544 72.052L12.0755 79.162L12.2446 78.9779ZM11.9459 79.5152C12.0486 79.3925 12.1502 79.271 12.2541 79.1523L12.066 78.9876C11.9599 79.1088 11.8565 79.2324 11.7542 79.3547L11.9459 79.5152ZM11.6341 79.8823C11.7402 79.761 11.8436 79.6375 11.9459 79.5152L11.7542 79.3547C11.6515 79.4774 11.5499 79.5988 11.446 79.7176L11.6341 79.8823ZM7.22252 77.0138C8.63742 77.9761 10.0523 78.9385 11.4697 79.9033L11.6104 79.6966C10.193 78.7318 8.77801 77.7694 7.36311 76.8071L7.22252 77.0138ZM2.92966 74.0933C4.3623 75.0685 5.79241 76.0411 7.22252 77.0138L7.36311 76.8071C5.933 75.8344 4.50293 74.8618 3.07034 73.8866L2.92966 74.0933ZM2.85401 74.4193C2.93427 74.2989 3.01241 74.1817 3.1 74.0649L2.9 73.9149C2.80759 74.0382 2.72573 74.161 2.64599 74.2806L2.85401 74.4193ZM6.5802 77.7832C5.33115 76.6092 4.08221 75.4354 2.83579 74.259L2.6642 74.4408C3.91084 75.6174 5.15997 76.7914 6.40899 77.9653L6.5802 77.7832ZM10.3158 81.299C9.07224 80.1254 7.82616 78.9542 6.5802 77.7832L6.40899 77.9653C7.65498 79.1364 8.90086 80.3074 10.1443 81.4808L10.3158 81.299ZM9.73055 82.0961L10.3206 81.4761L10.1395 81.3038L9.54945 81.9238L9.73055 82.0961ZM5.07725 78.8866C6.57471 79.9616 8.07212 81.0365 9.56702 82.1114L9.71297 81.9085C8.21798 80.8335 6.72049 79.7585 5.22304 78.6835L5.07725 78.8866ZM0.604596 75.6741C2.09385 76.7449 3.58558 77.8158 5.07725 78.8866L5.22304 78.6835C3.73135 77.6127 2.23971 76.5419 0.750546 75.4711L0.604596 75.6741ZM106.741 77.751C103.468 78.4619 100.196 79.1725 96.9075 79.7771L96.9527 80.0229C100.245 79.4176 103.521 78.706 106.794 77.9953L106.741 77.751ZM123.615 74.6359C117.941 75.3183 112.339 76.535 106.741 77.751L106.794 77.9953C112.394 76.7789 117.984 75.5649 123.645 74.8841L123.615 74.6359ZM135.474 75.2307C131.5 74.7026 127.493 74.1694 123.615 74.6359L123.645 74.8841C127.486 74.422 131.461 74.9496 135.441 75.4786L135.474 75.2307ZM135.474 75.2307L135.473 75.2306L135.442 75.4787L135.443 75.4787L135.474 75.2307ZM139.972 75.7756C138.481 75.6303 136.98 75.4309 135.475 75.2308L135.442 75.4786C136.946 75.6786 138.452 75.8787 139.948 76.0244L139.972 75.7756ZM141.329 78.8934C141.418 78.5641 141.511 78.2197 141.567 77.8879C141.624 77.5566 141.646 77.2281 141.589 76.9309C141.53 76.6301 141.389 76.3609 141.123 76.1564C140.86 75.9541 140.484 75.8235 139.972 75.7755L139.948 76.0245C140.433 76.0698 140.757 76.1908 140.971 76.3547C141.181 76.5163 141.295 76.7277 141.343 76.9786C141.393 77.233 141.375 77.5272 141.321 77.8458C141.267 78.1639 141.177 78.4968 141.088 78.8285L141.329 78.8934ZM141.311 78.9625L141.329 78.8934L141.088 78.8285L141.069 78.8975L141.311 78.9625ZM119.962 109.542C130.736 101.965 137.853 91.7104 141.311 78.9627L141.069 78.8973C137.627 91.5896 130.544 101.795 119.818 109.338L119.962 109.542ZM41.8734 93.2451C58.3509 120.227 94.1127 127.724 119.962 109.542L119.818 109.338C94.0875 127.436 58.4893 119.973 42.0868 93.1149L41.8734 93.2451ZM40.8272 91.3625C41.2072 92.0753 41.5237 92.6692 41.8732 93.2449L42.0869 93.1151C41.7417 92.5465 41.4285 91.9591 41.0478 91.2449L40.8272 91.3625ZM40.8256 91.3595L40.8257 91.3596L41.0493 91.2478L41.0493 91.2477L40.8256 91.3595ZM40.2403 90.2697C40.4568 90.6678 40.6491 91.0284 40.8271 91.3624L41.0478 91.2448C40.8697 90.9108 40.677 90.5494 40.4599 90.1503L40.2403 90.2697ZM72.0709 85.2516C61.7336 87.4686 51.3355 89.6983 40.3457 90.0851L40.3545 90.3349C51.3698 89.9472 61.7891 87.7124 72.1234 85.4961L72.0709 85.2516ZM72.0711 85.2516L72.0709 85.2516L72.1233 85.4961L72.1235 85.496L72.0711 85.2516ZM81.8961 83.2073C78.6168 83.8478 75.347 84.549 72.0711 85.2516L72.1235 85.496C75.3998 84.7934 78.6674 84.0926 81.9441 83.4527L81.8961 83.2073ZM88.4378 84.431C87.3921 83.4005 86.3276 82.9782 85.2332 82.8743C84.1458 82.7711 83.033 82.9829 81.8959 83.2074L81.9443 83.4526C83.0872 83.2271 84.1644 83.0239 85.2095 83.1232C86.2476 83.2218 87.2581 83.6195 88.2624 84.609L88.4378 84.431ZM87.0933 91.7723C87.6051 89.3197 88.1112 86.8949 88.4736 84.539L88.2266 84.501C87.8653 86.8492 87.3607 89.2673 86.8486 91.7213L87.0933 91.7723ZM87.0942 91.7675L87.0942 91.7674L86.8476 91.7263L86.8476 91.7264L87.0942 91.7675ZM85.6237 99.5188C86.0166 96.932 86.5581 94.3368 87.0933 91.7725L86.8485 91.7214C86.3136 94.2845 85.7706 96.8865 85.3765 99.4812L85.6237 99.5188ZM86.0001 101.875C85.9171 101.875 85.8416 101.841 85.7726 101.757C85.7005 101.671 85.6366 101.532 85.5923 101.331C85.5038 100.93 85.5016 100.323 85.6237 99.5188L85.3765 99.4812C85.2524 100.299 85.2502 100.941 85.3482 101.385C85.3972 101.607 85.4733 101.789 85.5803 101.917C85.6903 102.05 85.8331 102.125 86.0001 102.125V101.875ZM87.1869 99.6491C87.0329 100.558 86.8339 101.121 86.6211 101.454C86.4121 101.781 86.1979 101.875 86.0001 101.875V102.125C86.3023 102.125 86.5881 101.969 86.8317 101.589C87.0714 101.214 87.2774 100.612 87.4333 99.6909L87.1869 99.6491ZM88.8878 91.5899C88.4812 94.3578 88.0848 97.0536 87.192 99.6291L87.4282 99.7109C88.3301 97.1094 88.7291 94.39 89.1351 91.6262L88.8878 91.5899ZM90.0087 85.38C89.4931 87.4682 89.1876 89.5483 88.8878 91.5899L89.1351 91.6262C89.4352 89.5829 89.7392 87.5146 90.2514 85.44L90.0087 85.38ZM90.7211 85.7035C90.5556 85.5796 90.3844 85.4515 90.2076 85.3119L90.0526 85.5081C90.2324 85.6501 90.4061 85.78 90.5714 85.9036L90.7211 85.7035ZM90.7228 85.7047L90.7225 85.7045L90.57 85.9026L90.5703 85.9029L90.7228 85.7047ZM91.7095 86.5227C91.4199 86.226 91.0829 85.9741 90.7214 85.7037L90.5717 85.9039C90.9363 86.1767 91.257 86.417 91.5307 86.6973L91.7095 86.5227ZM95.7991 90.704C94.4368 89.3094 93.0744 87.9146 91.7094 86.5225L91.5309 86.6975C92.8957 88.0894 94.258 89.484 95.6203 90.8787L95.7991 90.704ZM105.369 100.432C102.156 97.2122 98.9779 93.9584 95.7991 90.704L95.6203 90.8787C98.7989 94.133 101.978 97.3877 105.192 100.608L105.369 100.432ZM106.765 101.083C106.209 100.917 105.697 100.76 105.368 100.432L105.192 100.608C105.574 100.99 106.155 101.162 106.693 101.323L106.765 101.083ZM106.765 101.083L106.765 101.083L106.693 101.323L106.693 101.323L106.765 101.083ZM107.517 101.334C107.276 101.237 107.017 101.159 106.765 101.083L106.693 101.323C106.948 101.399 107.195 101.473 107.423 101.566L107.517 101.334ZM107.087 100.788C107.168 101.027 107.252 101.274 107.356 101.502L107.584 101.398C107.486 101.183 107.406 100.949 107.324 100.707L107.087 100.788ZM106.444 99.5202C106.754 99.8186 106.915 100.282 107.087 100.788L107.324 100.707C107.157 100.218 106.98 99.6887 106.617 99.3398L106.444 99.5202ZM94.0178 87.6095C98.0861 91.4841 102.284 95.4823 106.443 99.5197L106.617 99.3403C102.457 95.3019 98.2584 91.3029 94.1902 87.4284L94.0178 87.6095ZM91.1638 84.8905C92.1064 85.7892 93.0585 86.6959 94.0178 87.6095L94.1902 87.4284C93.2309 86.5148 92.2789 85.6082 91.3364 84.7095L91.1638 84.8905ZM96.8484 79.8054L91.1684 84.7054L91.3317 84.8947L97.0117 79.9946L96.8484 79.8054ZM66.2733 113.087L65.5233 112.247L65.3369 112.413L66.0869 113.253L66.2733 113.087ZM68.6995 110.634C67.832 111.449 66.9646 112.264 66.0946 113.079L66.2656 113.261C67.1356 112.446 68.0032 111.631 68.8707 110.816L68.6995 110.634ZM68.7152 110.619L68.6995 110.634L68.8707 110.816L68.8864 110.801L68.7152 110.619ZM71.3046 108.189C70.4398 108.999 69.5775 109.809 68.7153 110.619L68.8864 110.801C69.7487 109.991 70.6109 109.181 71.4756 108.371L71.3046 108.189ZM71.2984 108.365L71.2987 108.365L71.4815 108.195L71.4812 108.194L71.2984 108.365ZM70.4573 107.454C70.738 107.765 71.0186 108.065 71.2984 108.365L71.4812 108.194C71.2012 107.894 70.922 107.595 70.6429 107.286L70.4573 107.454ZM68.0964 109.916C68.9425 109.097 69.7885 108.279 70.6369 107.46L70.4633 107.28C69.6147 108.099 68.7686 108.918 67.9226 109.736L68.0964 109.916ZM68.077 109.935L68.0965 109.916L67.9226 109.736L67.9032 109.755L68.077 109.935ZM65.5169 112.41C66.372 111.585 67.2245 110.76 68.077 109.935L67.9032 109.755C67.0507 110.58 66.1982 111.405 65.3433 112.23L65.5169 112.41ZM65.5551 112.33V112.32H65.3051V112.33H65.5551ZM93.5066 118.085L94.6268 118.115L94.6334 117.865L93.5133 117.835L93.5066 118.085ZM93.2651 110.852L93.3849 117.962L93.6349 117.958L93.5151 110.848L93.2651 110.852ZM94.6301 110.725H93.3901V110.975H94.6301V110.725ZM94.7551 117.99V110.85H94.5051V117.99H94.7551ZM137.495 80.2804L137.495 80.2782L137.245 80.2678L137.245 80.27L137.495 80.2804ZM137.475 80.8433C137.48 80.6579 137.487 80.4701 137.495 80.2801L137.245 80.2704C137.237 80.4601 137.23 80.6496 137.225 80.8367L137.475 80.8433ZM133.753 80.7598C134.951 80.8273 136.148 80.8948 137.343 80.9648L137.357 80.7152C136.162 80.6452 134.965 80.5777 133.767 80.5102L133.753 80.7598ZM130.163 80.5548C131.358 80.6248 132.556 80.6923 133.753 80.7598L133.767 80.5102C132.57 80.4427 131.372 80.3752 130.177 80.3052L130.163 80.5548ZM130.065 79.8437C130.058 80.0374 130.05 80.232 130.045 80.4268L130.295 80.4332C130.3 80.2403 130.307 80.0473 130.315 79.8533L130.065 79.8437ZM130.065 79.8401L130.065 79.8436L130.315 79.8534L130.315 79.8499L130.065 79.8401ZM130.085 79.2568C130.08 79.4509 130.073 79.6451 130.065 79.8402L130.315 79.8498C130.323 79.6549 130.33 79.4591 130.335 79.2632L130.085 79.2568ZM133.807 79.3452L130.217 79.1352L130.203 79.3848L133.793 79.5948L133.807 79.3452ZM137.397 79.5552L133.807 79.3452L133.793 79.5948L137.383 79.8048L137.397 79.5552ZM137.495 80.2779C137.502 80.0812 137.51 79.8823 137.515 79.6832L137.265 79.6768C137.26 79.874 137.252 80.0713 137.245 80.2682L137.495 80.2779ZM129.54 97.3941C129.427 97.5266 129.315 97.6592 129.205 97.7893L129.396 97.9507C129.505 97.8208 129.618 97.6884 129.73 97.5559L129.54 97.3941ZM129.875 96.9993C129.765 97.1292 129.652 97.2616 129.54 97.3941L129.73 97.5559C129.843 97.4234 129.955 97.2908 130.066 97.1607L129.875 96.9993ZM127.538 95.147C128.32 95.8228 129.103 96.4988 129.889 97.1747L130.052 96.9853C129.267 96.3095 128.484 95.6336 127.701 94.9578L127.538 95.147ZM127.523 95.1346L127.538 95.147L127.701 94.9577L127.687 94.9454L127.523 95.1346ZM127.516 95.1284L127.523 95.1346L127.687 94.9454L127.68 94.9392L127.516 95.1284ZM125.159 93.0947C125.946 93.7726 126.731 94.4505 127.516 95.1284L127.68 94.9392C126.895 94.2613 126.109 93.5833 125.322 92.9053L125.159 93.0947ZM124.615 93.9213L125.335 93.0813L125.145 92.9187L124.425 93.7586L124.615 93.9213ZM129.381 97.7643L124.601 93.7443L124.44 93.9357L129.22 97.9557L129.381 97.7643ZM129.425 97.87V97.86H129.175V97.87H129.425ZM115.28 109.334C115.167 109.467 115.055 109.599 114.945 109.729L115.136 109.891C115.245 109.761 115.358 109.628 115.47 109.496L115.28 109.334ZM115.471 109.109C115.408 109.184 115.344 109.259 115.28 109.334L115.47 109.496C115.534 109.421 115.598 109.345 115.662 109.27L115.471 109.109ZM115.615 108.939C115.567 108.995 115.519 109.052 115.471 109.109L115.662 109.27C115.71 109.214 115.758 109.157 115.806 109.101L115.615 108.939ZM113.268 107.078C114.054 107.757 114.84 108.436 115.629 109.115L115.792 108.925C115.003 108.247 114.217 107.568 113.431 106.889L113.268 107.078ZM113.263 107.075L113.268 107.078L113.431 106.889L113.427 106.885L113.263 107.075ZM113.259 107.071L113.263 107.075L113.427 106.885L113.423 106.882L113.259 107.071ZM110.899 105.035C111.687 105.713 112.473 106.392 113.259 107.071L113.423 106.882C112.637 106.203 111.85 105.524 111.062 104.845L110.899 105.035ZM110.355 105.861L111.075 105.021L110.885 104.859L110.165 105.699L110.355 105.861ZM115.121 109.704L110.341 105.684L110.18 105.876L114.96 109.896L115.121 109.704ZM115.165 109.81V109.8H114.915V109.81H115.165ZM49.9288 101.25C49.8363 101.113 49.7439 100.975 49.6541 100.841L49.4461 100.979C49.5363 101.115 49.6289 101.252 49.7214 101.39L49.9288 101.25ZM50.2041 101.661C50.1139 101.525 50.0213 101.388 49.9288 101.25L49.7214 101.39C49.8139 101.527 49.9063 101.665 49.9961 101.799L50.2041 101.661ZM54.0859 98.8734C52.7367 99.7911 51.3834 100.712 50.0301 101.626L50.1701 101.834C51.5238 100.919 52.8774 99.9978 54.2265 99.0801L54.0859 98.8734ZM54.0924 98.8689L54.0859 98.8734L54.2265 99.0801L54.233 99.0757L54.0924 98.8689ZM54.1121 98.8556L54.0924 98.8689L54.233 99.0757L54.2527 99.0623L54.1121 98.8556ZM55.3898 97.9866C54.9644 98.2758 54.5385 98.5655 54.1121 98.8556L54.2527 99.0623C54.6791 98.7722 55.105 98.4825 55.5304 98.1934L55.3898 97.9866ZM55.0802 97.7331C55.1728 97.8756 55.2651 98.0179 55.3549 98.1576L55.5652 98.0224C55.4751 97.8821 55.3824 97.7394 55.2899 97.5969L55.0802 97.7331ZM54.805 97.3076C54.8951 97.4479 54.9878 97.5906 55.0802 97.7331L55.2899 97.5969C55.1974 97.4544 55.1051 97.3121 55.0152 97.1724L54.805 97.3076ZM50.9005 100.136C52.2577 99.2048 53.6191 98.2712 54.9805 97.3433L54.8397 97.1367C53.478 98.0648 52.1162 98.9987 50.7591 99.9295L50.9005 100.136ZM49.6208 101.013L50.9005 100.136L50.7591 99.9295L49.4794 100.807L49.6208 101.013Z" fill="#B40000"/>
<path d="M104.48 63.4C104.14 61.37 103.92 60.03 103.6 58.11C105.1 58.38 106.36 58.35 107.28 58.89C107.73 59.16 107.94 60.78 107.57 61.29C106.95 62.13 105.78 62.56 104.47 63.4H104.48Z" stroke="#B40000" stroke-width="0.25" stroke-miterlimit="10"/>
<path d="M56.53 65.95C58.53 65.72 60.3 65.32 60.65 67.5C60.99 69.65 59.37 70.25 57.19 70.49C56.98 69.07 56.78 67.67 56.53 65.95Z" stroke="#B40000" stroke-width="0.25" stroke-miterlimit="10"/>
<path d="M45.7801 72.56C45.5601 71.02 45.3401 69.52 45.0901 67.79C46.9301 67.73 48.7301 67.09 49.1801 69.33C49.6501 71.68 48.0001 72.31 45.7901 72.56H45.7801Z" stroke="#B40000" stroke-width="0.25" stroke-miterlimit="10"/>
<path d="M81.54 66.55C81.35 65.18 81.16 63.82 80.88 61.81C82.31 62.07 83.52 62.06 84.47 62.56C84.94 62.81 85.31 64.27 85.02 64.72C84.39 65.68 83.29 66.34 82.39 67.12C82.11 66.93 81.82 66.73 81.54 66.54V66.55Z" stroke="#B40000" stroke-width="0.25" stroke-miterlimit="10"/>
<path d="M65.4302 112.33C67.1402 110.68 68.8402 109.03 70.5502 107.38C70.8302 107.68 71.1102 107.98 71.3902 108.29C69.6502 109.92 67.9202 111.55 66.1802 113.18C65.9302 112.9 65.6802 112.62 65.4302 112.34V112.33Z" stroke="#B40000" stroke-width="0.25" stroke-miterlimit="10"/>
</g>
<defs>
<clipPath id="clip0_725_1332">
<rect width="176" height="127" fill="white"/>
</clipPath>
</defs>
</svg>
