<svg width="175" height="127" viewBox="0 0 175 127" fill="none" xmlns="http://www.w3.org/2000/svg">
<path d="M38.0199 32.9377C36.4799 34.8877 34.7599 36.7277 33.4399 38.8177C28.5999 46.5077 32.1099 54.2077 41.1599 54.9277C46.7399 55.3777 52.5499 55.2177 58.0399 54.1677C75.3699 50.8477 92.5799 46.8977 109.87 43.3677C116.72 41.9677 123.63 40.8377 130.55 39.8877C138.64 38.7877 146.48 40.0477 154.04 43.1477C154.86 43.4877 156.15 43.4077 156.94 42.9877C164.47 39.0377 175.38 45.5877 175.38 54.1277C175.38 57.8577 172.94 60.8577 169.28 61.6077C161.48 63.2177 153.54 56.6577 153.45 48.6677C153.45 47.9177 152.53 46.8377 151.77 46.4977C144.22 43.1177 136.21 42.5777 128.25 43.9877C114.08 46.4977 99.9999 49.5677 85.8699 52.3477C74.5999 54.5577 63.3499 56.9077 52.0199 58.7377C47.9899 59.3877 43.6899 59.0877 39.6099 58.5177C34.3499 57.7977 30.1799 55.0577 28.6299 49.6077C27.1299 44.3077 29.1599 39.9477 32.9199 36.3077C34.3899 34.8877 36.1599 33.7877 37.7899 32.5477C37.8599 32.6777 37.9299 32.7977 38.0099 32.9277L38.0199 32.9377Z" fill="white"/>
<path d="M104.43 64.8677C105.08 66.3477 105.73 67.8177 106.45 69.4677C105.24 69.6777 103.53 69.9577 101.66 70.2777C103.36 67.2077 101.98 59.1777 99.2201 57.3277C101.66 56.9877 103.75 56.4277 105.82 56.4877C107.14 56.5277 109.08 57.1577 109.55 58.1177C110.1 59.2377 109.41 60.9977 109.14 62.4577C109.06 62.8777 108.56 63.2277 107.83 64.1177C109.74 65.2777 111.42 66.5877 113.32 67.3577C114.83 67.9677 115.96 67.0777 115.74 65.2977C115.41 62.6577 115.03 60.0177 114.46 57.4177C114.3 56.7077 113.39 56.1577 112.56 55.2377C114.43 54.9177 116.2 54.6277 118.21 54.2877C116.67 56.4577 116.86 60.9077 118.66 65.9977C120.18 65.4877 121.72 64.9677 123.43 64.3877C124.02 65.7777 124.01 66.8777 121.62 67.1377C118.83 67.4477 116.06 68.0277 113.3 68.5977C111.33 68.9977 109.7 68.6277 108.33 67.0977C107.43 66.0877 106.43 65.1777 105.47 64.2177C105.13 64.4277 104.78 64.6477 104.44 64.8577L104.43 64.8677ZM104.48 63.2777C105.79 62.4377 106.96 61.9977 107.58 61.1677C107.95 60.6677 107.74 59.0377 107.29 58.7677C106.37 58.2277 105.11 58.2577 103.61 57.9877C103.93 59.9077 104.15 61.2577 104.49 63.2777H104.48Z" fill="white"/>
<path d="M47.6001 107.908C55.0101 114.808 63.5401 119.658 73.2901 122.218C76.0101 122.938 78.8301 123.268 81.5801 123.908C82.2001 124.048 82.6901 124.738 83.2401 125.168C82.5701 125.418 81.8801 125.958 81.2501 125.878C68.4001 124.348 57.1801 119.168 47.4801 110.638C46.5501 109.818 45.5601 109.028 47.6001 107.898V107.908Z" fill="white"/>
<path d="M127.24 112.848C124.77 114.508 122.37 116.278 119.82 117.798C111.54 122.778 102.56 125.598 92.9002 126.118C92.1402 126.158 91.3402 125.518 90.5602 125.188C91.2702 124.818 91.9702 124.188 92.7002 124.128C104.4 123.278 114.91 119.298 124.28 112.278C125.92 111.048 125.93 111.068 127.23 112.838L127.24 112.848Z" fill="white"/>
<path d="M66.6901 75.7676C65.0501 76.6876 63.3701 76.6476 61.8301 75.3176C60.5401 74.1976 59.3501 72.9576 58.1101 71.7676C57.8201 71.9876 57.5301 72.1976 57.2401 72.4176C57.8801 73.8976 58.5201 75.3776 59.2401 77.0276C57.9601 77.2376 56.1901 77.5376 54.0901 77.8776C56.2501 75.0776 54.9701 66.9676 52.0801 64.8176C54.4601 64.4976 56.5701 63.9576 58.6501 64.0376C59.9601 64.0876 61.9001 64.7676 62.3401 65.7276C62.8701 66.8676 62.1501 68.6176 61.8501 70.0776C61.7601 70.5076 61.2501 70.8476 60.6601 71.5676C62.6601 72.9576 64.5801 74.2876 66.6901 75.7476V75.7676ZM56.5301 65.8276C56.7801 67.5376 56.9801 68.9376 57.1901 70.3676C59.3701 70.1276 60.9901 69.5276 60.6501 67.3776C60.3001 65.1976 58.5401 65.5976 56.5301 65.8276Z" fill="white"/>
<path d="M88.3601 59.0877C91.2201 58.6177 94.0701 58.1377 97.2401 57.6177C97.4001 58.5377 97.5401 59.4177 97.6501 60.0377H92.2701C92.5301 61.4577 92.7201 62.4977 92.9801 63.9077C94.1601 63.4877 95.1801 63.1277 96.5101 62.6577C96.6601 63.5277 96.8201 64.5077 97.0001 65.5477C95.7401 65.3677 94.6701 65.2177 93.1701 65.0077C93.4401 66.7477 93.6501 68.0877 93.9601 70.0677C95.9001 69.3377 97.5301 68.7277 99.1701 68.1077C100.07 70.2277 99.8601 70.6477 97.3101 71.0277C95.0301 71.3677 92.7501 71.7077 89.9401 72.1277C92.2001 69.8577 91.2201 67.6077 90.7401 65.4877C90.2701 63.3777 91.2301 60.6277 88.3601 59.0977V59.0877Z" fill="white"/>
<path d="M67.12 75.7977C69.36 73.0477 68.04 64.7977 65.16 62.7877C68.38 62.2677 71.35 61.7977 74.56 61.2877C74.67 62.2477 74.76 63.0277 74.85 63.7277C73.15 63.6377 71.6 63.5477 69.7 63.4477C69.85 64.9777 69.96 66.1377 70.12 67.7377C71.49 67.1477 72.48 66.7177 73.71 66.1877C73.88 67.2177 74.07 68.2777 74.22 69.1877C72.89 69.0277 71.77 68.8977 70.26 68.7177C70.63 70.5677 70.9 71.9077 71.28 73.8077C73.23 72.9677 74.86 72.2577 76.65 71.4877C76.68 72.2077 76.73 73.1377 76.78 74.2577C73.63 74.7677 70.62 75.2477 67.12 75.8077V75.7977Z" fill="white"/>
<path d="M45.77 74.4976C46.44 75.9176 47.08 77.2676 47.82 78.8476C46.49 79.0776 44.73 79.3776 42.74 79.7076C44.8 76.6976 43.48 68.5576 40.16 66.6776C43.37 66.3276 45.91 65.7676 48.41 65.9076C49.44 65.9676 50.75 67.3476 51.28 68.4376C52.08 70.0876 51.36 71.7476 49.81 72.7476C48.79 73.4076 47.56 73.7376 45.77 74.4876V74.4976ZM45.78 72.4376C47.99 72.1876 49.65 71.5576 49.17 69.2076C48.72 66.9676 46.92 67.5976 45.08 67.6676C45.33 69.3976 45.55 70.9076 45.77 72.4376H45.78Z" fill="white"/>
<path d="M76.53 60.8777C79.03 60.5677 81.21 60.2377 83.39 60.0577C85.24 59.9077 86.7 60.6277 87.21 62.5277C87.76 64.6077 87.14 66.3377 85.16 67.3577C84.22 67.8377 83.16 68.0977 81.62 68.6377C82.32 70.0977 82.99 71.4977 83.75 73.0777C82.43 73.3077 80.68 73.6177 78.67 73.9677C80.6 70.9277 79.37 63.1177 76.53 60.8677V60.8777ZM81.54 66.4277C81.82 66.6177 82.11 66.8177 82.39 67.0077C83.3 66.2277 84.39 65.5677 85.02 64.6077C85.31 64.1577 84.94 62.6977 84.47 62.4477C83.53 61.9477 82.31 61.9577 80.88 61.6977C81.16 63.6977 81.35 65.0677 81.54 66.4377V66.4277Z" fill="white"/>
<path d="M127.98 52.7277C127 54.1144 127.597 55.881 129.77 58.0277C129.94 56.1277 132.81 54.7077 129.42 52.5277C131.58 52.1777 133.34 51.8877 135.44 51.5477C130.75 56.9777 129.48 62.7977 133.68 65.1477C131.48 65.4977 129.71 65.7877 127.64 66.1177C129.45 63.7877 129.48 61.1777 127.71 59.1477C126.06 57.2677 124.22 55.5577 122.4 53.7177C123.92 53.4477 125.72 53.1377 127.98 52.7377V52.7277Z" fill="white"/>
<path d="M43.48 104.798C42.78 104.648 41.75 104.748 41.43 104.318C39.29 101.488 37.27 98.5677 35.32 95.6077C35.04 95.1877 35.35 94.3877 35.39 93.7577C35.96 94.0377 36.73 94.1677 37.05 94.6277C39.26 97.7077 41.37 100.868 43.52 103.998C43.51 104.268 43.5001 104.538 43.4901 104.808L43.48 104.798Z" fill="white"/>
<path d="M130.87 108.458C130.87 107.818 130.61 106.978 130.92 106.578C132.14 105.008 133.5 103.538 134.9 102.128C135.2 101.818 135.87 101.868 136.36 101.748C136.39 102.318 136.67 103.078 136.41 103.408C134.97 105.208 133.39 106.898 131.86 108.628C131.53 108.568 131.2 108.508 130.87 108.458Z" fill="white"/>
<path fill-rule="evenodd" clip-rule="evenodd" d="M84.4615 6.75998C85.0918 7.45337 85.7311 8.15667 86.0701 8.94764C85.8805 8.98161 85.694 9.01717 85.5099 9.05229C85.0435 9.14128 84.5918 9.22745 84.1401 9.27764C61.7601 11.7577 46.3301 23.5777 37.1901 44.0077C34.7201 49.5277 36.7001 50.6677 41.7201 51.7177C43.8101 52.1577 46.0701 52.2377 48.1901 51.9777C48.8685 51.8934 49.5472 51.8097 50.2261 51.726C56.2318 50.9856 62.2504 50.2436 68.1801 49.0577C77.7043 47.1434 87.2094 45.1334 96.7139 43.1235C105.382 41.2906 114.049 39.4577 122.73 37.6977C125.729 37.0885 128.791 36.7863 131.98 36.4716C133.502 36.3214 135.054 36.1683 136.64 35.9777C125.73 19.1477 110.49 10.2077 90.6501 8.94764C91.0509 8.19282 91.658 7.52702 92.249 6.87887C93.6781 5.31162 95.0131 3.84755 93.1101 1.47765C91.6401 -0.362351 85.6801 -0.542351 83.9401 1.26765C81.6409 3.65709 83.0279 5.1829 84.4615 6.75998ZM69.7831 17.3478C69.7887 17.3444 69.7944 17.341 69.8001 17.3376L69.85 17.3276C69.8277 17.3343 69.8054 17.341 69.7831 17.3478ZM69.7831 17.3478C65.9263 18.5208 62.2623 21.4261 58.8731 24.1134C58.0488 24.7671 57.2407 25.4078 56.4501 26.0076C51.0201 30.1276 46.8601 35.4576 43.8601 41.5976C43.5643 42.2099 43.6849 43.0256 43.8053 43.8397C43.8599 44.209 43.9145 44.5781 43.9301 44.9276C44.2579 44.793 44.5943 44.672 44.9303 44.5513C45.742 44.2594 46.5511 43.9686 47.2301 43.4876C47.6202 43.208 47.8286 42.6832 48.0393 42.1523C48.1526 41.8667 48.2667 41.5795 48.4101 41.3276C48.7993 40.6465 49.18 39.9593 49.5607 39.2718C50.5497 37.4864 51.5393 35.6999 52.6801 34.0176C57.1364 27.4231 63.0003 21.4077 69.7831 17.3478Z" fill="white"/>
<path fill-rule="evenodd" clip-rule="evenodd" d="M0.677571 75.4503C0.671714 75.4461 0.665857 75.4418 0.66 75.4376L0.68 75.4476C0.67919 75.4485 0.678381 75.4494 0.677571 75.4503ZM0.677571 75.4503C0.563415 75.5744 0.451706 75.696 0.339997 75.8176C0.227498 75.9401 0.114999 76.0626 0 76.1876C0.784981 76.9106 1.58825 77.6171 2.3916 78.3237C4.17743 79.8946 5.96362 81.4657 7.55 83.2176C10.3 86.2576 13.48 87.1376 17.42 86.7076C18.8928 86.545 20.4635 86.9538 21.9625 87.344C22.1226 87.3857 22.2818 87.4271 22.4399 87.4676C24.0529 87.8854 25.6555 88.3465 27.2579 88.8077C29.7983 89.5387 32.3384 90.2696 34.9199 90.8276C36.7599 91.2276 37.93 91.7376 38.96 93.4676C51.43 114.328 69.94 124.588 94.09 122.138C118.01 119.708 134.01 106.108 142.2 83.4476C142.482 82.6705 142.74 81.8792 143.008 81.0607C143.129 80.689 143.252 80.3117 143.38 79.9276C147.3 83.7276 146.38 87.5576 139.31 97.6376C142.18 96.7476 145.27 93.9376 147.15 90.5076C150.5 84.3976 148.68 77.3976 142.5 74.2476C139.92 72.9276 136.86 72.1776 133.95 71.9076C126.33 71.2076 118.84 72.5676 111.41 74.1176C104.71 75.5208 98.0132 76.9402 91.3173 78.3595C79.1157 80.9459 66.9162 83.5318 54.7001 86.0176C45.2201 87.9476 35.7299 88.3776 26.3499 85.0076C23.6499 84.0376 22.2 82.7376 22.05 79.8076C21.88 76.2976 20.0899 73.7476 16.9399 72.0676C15.2802 71.1811 13.6737 70.1879 12.0673 69.1947C11.2638 68.6979 10.4602 68.2011 9.65 67.7176C9.27783 67.5011 8.88277 67.3212 8.4865 67.1407C8.29715 67.0545 8.10753 66.9682 7.92 66.8776C7.84001 67.0176 7.76002 67.1676 7.68004 67.3176L7.68 67.3176C9.02662 68.4647 10.3757 69.6118 11.7248 70.7589C13.0807 71.9118 14.4366 73.0647 15.79 74.2176C15.6744 74.3719 15.5546 74.5219 15.436 74.6706C15.37 74.7532 15.3044 74.8354 15.24 74.9176C13.0368 73.4895 10.8387 72.0562 8.63841 70.6214C7.77277 70.057 6.90678 69.4923 6.04 68.9276C5.97 69.0476 5.89 69.1776 5.81 69.2976L14.06 76.4676C13.945 76.6126 13.8325 76.7601 13.72 76.9076C13.6075 77.0551 13.495 77.2026 13.38 77.3476C11.9301 76.3626 10.4826 75.3777 9.03513 74.3927C7.58758 73.4077 6.14003 72.4227 4.69 71.4376C4.645 71.5026 4.6 71.5701 4.555 71.6376C4.51 71.7051 4.465 71.7726 4.42 71.8376L12.16 78.9476C12.055 79.0676 11.9525 79.1901 11.85 79.3126C11.7475 79.4351 11.645 79.5576 11.54 79.6776C10.1226 78.7128 8.70772 77.7505 7.29281 76.7881C5.86271 75.8155 4.43262 74.8428 3 73.8676C2.91 73.9876 2.83 74.1076 2.75 74.2276C3.99653 75.4041 5.24556 76.578 6.49459 77.7519C7.74057 78.923 8.98655 80.0941 10.23 81.2676L9.64 81.8876C8.14505 80.8127 6.6476 79.7377 5.15015 78.6627C3.65846 77.5919 2.16678 76.5211 0.677571 75.4503ZM96.9301 79.7777C100.221 79.1727 103.495 78.4616 106.767 77.7508C112.367 76.5346 117.963 75.3193 123.63 74.6377C127.489 74.1734 131.48 74.7038 135.458 75.2323L135.458 75.2324C136.963 75.4324 138.467 75.6322 139.96 75.7777C141.955 75.9644 141.564 77.4166 141.209 78.7386L141.19 78.8077C137.74 91.5277 130.64 101.758 119.89 109.318C94.1001 127.458 58.4201 119.978 41.9801 93.0577C41.6327 92.4856 41.3179 91.8949 40.9375 91.1814L40.9375 91.1813C40.7594 90.8473 40.5669 90.4863 40.3501 90.0877C51.3526 89.7004 61.7613 87.4682 72.0971 85.2515L72.0973 85.2515C75.3734 84.5489 78.6421 83.8479 81.9201 83.2077C84.2001 82.7577 86.3001 82.3777 88.3501 84.3977C87.9882 86.7497 87.4829 89.1712 86.9709 91.6245L86.9709 91.6246C86.4359 94.1884 85.8936 96.7869 85.5001 99.3777C85.2539 100.999 85.5001 101.878 86.0001 101.878C86.5001 101.878 87.0001 101.378 87.3101 99.5477C88.2074 96.9592 88.6052 94.2516 89.0114 91.4857C89.3114 89.4433 89.6161 87.3691 90.1301 85.2877C90.3084 85.4285 90.4809 85.5575 90.6462 85.6812L90.6465 85.6815C91.0096 85.9531 91.3385 86.1992 91.6201 86.4877C92.9851 87.8797 94.3474 89.2744 95.7097 90.6691C98.8884 93.9234 102.067 97.1777 105.28 100.398C105.635 100.753 106.182 100.917 106.729 101.081L106.729 101.081C106.983 101.157 107.236 101.233 107.47 101.328C107.369 101.106 107.287 100.866 107.205 100.625C107.036 100.128 106.867 99.6313 106.53 99.3077C102.371 95.2698 98.1723 91.2712 94.104 87.3966C93.1447 86.4831 92.1927 85.5764 91.2501 84.6777L96.9301 79.7777ZM65.4301 112.208L66.1801 113.048C67.0501 112.233 67.9176 111.418 68.7851 110.603L68.8008 110.588C69.6631 109.778 70.5254 108.968 71.3901 108.158L71.3898 108.157C71.1099 107.857 70.83 107.558 70.5501 107.248C69.7016 108.066 68.8555 108.885 68.0095 109.704L67.9901 109.723C67.1376 110.548 66.2851 111.373 65.4301 112.198V112.208ZM94.6301 117.868L93.5099 117.838L93.3901 110.728H94.6301V117.868ZM137.37 80.1507L137.37 80.1529C137.362 80.3428 137.355 80.5314 137.35 80.7177C136.155 80.6477 134.958 80.5802 133.76 80.5127C132.563 80.4452 131.365 80.3777 130.17 80.3077C130.175 80.1139 130.183 79.92 130.19 79.7262L130.19 79.7227C130.198 79.5277 130.205 79.3327 130.21 79.1377L133.8 79.3477L137.39 79.5577C137.385 79.7558 137.377 79.9539 137.37 80.1507ZM129.3 97.7477C129.41 97.6177 129.523 97.4852 129.635 97.3527C129.748 97.2202 129.86 97.0877 129.97 96.9577C129.185 96.2818 128.402 95.6059 127.619 94.9301L127.605 94.9177L127.598 94.9115C126.813 94.2336 126.028 93.5556 125.24 92.8777L124.52 93.7177L129.3 97.7377V97.7477ZM115.04 109.688C115.15 109.558 115.263 109.425 115.375 109.293C115.439 109.217 115.503 109.142 115.566 109.067C115.615 109.01 115.663 108.954 115.71 108.898C114.921 108.219 114.135 107.54 113.349 106.861L113.345 106.858L113.341 106.854C112.555 106.175 111.769 105.496 110.98 104.818L110.26 105.658L115.04 109.678V109.688ZM49.5501 100.788C49.6401 100.923 49.7326 101.06 49.8251 101.198C49.9176 101.335 50.0101 101.473 50.1001 101.608C51.4536 100.693 52.8071 99.7721 54.1562 98.8544L54.1627 98.85L54.1824 98.8366C54.6088 98.5466 55.0347 98.2568 55.4601 97.9677C55.3701 97.8277 55.2776 97.6852 55.1851 97.5427C55.0926 97.4002 55.0001 97.2577 54.9101 97.1177C53.5485 98.0457 52.187 98.9795 50.8298 99.9102L49.5501 100.788Z" fill="white"/>
</svg>
